SplineFontDB: 3.0
FontName: pleni
FullName: pleni
FamilyName: pleni
Weight: Book
Copyright: Copyright (c) 2015, jacobian
Version: 001.000
ItalicAngle: 0
UnderlinePosition: -150
UnderlineWidth: 50
Ascent: 800
Descent: 200
InvalidEm: 0
sfntRevision: 0x00010000
LayerCount: 2
Layer: 0 1 "Back" 1
Layer: 1 1 "Fore" 0
XUID: [1021 906 1216573306 3536307]
StyleMap: 0x0000
FSType: 0
OS2Version: 4
OS2_WeightWidthSlopeOnly: 0
OS2_UseTypoMetrics: 1
CreationTime: 1439047977
ModificationTime: 1441237094
PfmFamily: 17
TTFWeight: 400
TTFWidth: 5
LineGap: 90
VLineGap: 0
Panose: 2 0 5 9 0 0 0 0 0 0
OS2TypoAscent: 800
OS2TypoAOffset: 0
OS2TypoDescent: -200
OS2TypoDOffset: 0
OS2TypoLinegap: 90
OS2WinAscent: 801
OS2WinAOffset: 0
OS2WinDescent: 0
OS2WinDOffset: 0
HheadAscent: 801
HheadAOffset: 0
HheadDescent: 0
HheadDOffset: 0
OS2SubXSize: 650
OS2SubYSize: 700
OS2SubXOff: 0
OS2SubYOff: 140
OS2SupXSize: 650
OS2SupYSize: 700
OS2SupXOff: 0
OS2SupYOff: 480
OS2StrikeYSize: 49
OS2StrikeYPos: 258
OS2CapHeight: 800
OS2Vendor: 'PfEd'
OS2CodePages: 00000001.00000000
OS2UnicodeRanges: 00000001.00000000.00000000.00000000
MarkAttachClasses: 1
DEI: 91125
ShortTable: cvt  2
  33
  633
EndShort
ShortTable: maxp 16
  1
  0
  8
  107
  5
  0
  0
  2
  0
  1
  1
  0
  64
  46
  0
  0
EndShort
LangName: 1033 "" "" "Regular" "FontForge 2.0 : pleni : 9-8-2015"
GaspTable: 1 65535 2 0
Encoding: UnicodeBmp
UnicodeInterp: none
NameList: AGL For New Fonts
DisplaySize: -48
AntiAlias: 1
FitToEm: 0
WinInfo: 19 19 12
BeginChars: 65539 26

StartChar: .notdef
Encoding: 65536 -1 0
Width: 1000
Flags: W
LayerCount: 2
Fore
SplineSet
33 0 m 1,0,-1
 33 666 l 1,1,-1
 298 666 l 1,2,-1
 298 0 l 1,3,-1
 33 0 l 1,0,-1
66 33 m 1,4,-1
 265 33 l 1,5,-1
 265 633 l 1,6,-1
 66 633 l 1,7,-1
 66 33 l 1,4,-1
EndSplineSet
EndChar

StartChar: A
Encoding: 65 65 3
Width: 1000
Flags: W
LayerCount: 2
Fore
SplineSet
563.1484375 608.95703125 m 0,0,1
 628.495548456 608.861402122 628.495548456 608.861402122 703.58203125 573.70703125 c 0,2,3
 747.583147321 553.106544962 747.583147321 553.106544962 779.227653422 526.761131294 c 128,-1,4
 810.872159522 500.415717626 810.872159522 500.415717626 826.274595804 474.766656607 c 128,-1,5
 841.677032085 449.117595587 841.677032085 449.117595587 850.073658342 422.888238164 c 128,-1,6
 858.470284598 396.65888074 858.470284598 396.65888074 858.06668764 374.549620574 c 128,-1,7
 857.663090683 352.440360408 857.663090683 352.440360408 855.465080536 335.031493903 c 128,-1,8
 853.267070388 317.622627399 853.267070388 317.622627399 849.710683632 307.757602762 c 2,9,-1
 846.154296875 297.892578125 l 2,10,11
 849.369660722 297.88629386 849.369660722 297.88629386 854.906931571 297.555708849 c 128,-1,12
 860.44420242 297.225123838 860.44420242 297.225123838 876.423750144 294.192901756 c 128,-1,13
 892.403297867 291.160679674 892.403297867 291.160679674 906.936382191 285.894191675 c 128,-1,14
 921.469466514 280.627703676 921.469466514 280.627703676 939.217914684 269.075475098 c 128,-1,15
 956.966362855 257.52324652 956.966362855 257.52324652 969.730546731 241.938396076 c 128,-1,16
 982.494730608 226.353545631 982.494730608 226.353545631 991.247365304 200.8988511 c 128,-1,17
 1000 175.444156569 1000 175.444156569 1000 144.046875 c 128,-1,18
 1000 112.649394133 1000 112.649394133 991.515312291 87.1950078581 c 128,-1,19
 983.030624582 61.7406215835 983.030624582 61.7406215835 969.462599744 46.15401501 c 128,-1,20
 955.894574906 30.5674084366 955.894574906 30.5674084366 939.485861672 19.0176208318 c 128,-1,21
 923.077148438 7.46783322704 923.077148438 7.46783322704 906.668435203 2.19754179574 c 128,-1,22
 890.259721969 -3.07274963557 890.259721969 -3.07274963557 876.691697131 -6.10036386206 c 128,-1,23
 863.123672293 -9.12797808856 863.123672293 -9.12797808856 854.638984584 -9.46437966928 c 2,24,-1
 846.154296875 -9.80078125 l 1,25,-1
 192.30859375 -9.80078125 l 2,26,27
 188.289358326 -9.79288002616 188.289358326 -9.79288002616 181.367717042 -9.37957125142 c 128,-1,28
 174.446075757 -8.96626247668 174.446075757 -8.96626247668 154.471488953 -5.17577108641 c 128,-1,29
 134.496902149 -1.38527969614 134.496902149 -1.38527969614 116.330408368 5.19801279559 c 128,-1,30
 98.1639145869 11.7813052873 98.1639145869 11.7813052873 75.9781853818 26.2217895003 c 128,-1,31
 53.7924561767 40.6622737133 53.7924561767 40.6622737133 37.8371047967 60.1434448747 c 128,-1,32
 21.8817534167 79.624616036 21.8817534167 79.624616036 10.9408767084 111.442988024 c 128,-1,33
 0 143.261360013 0 143.261360013 0 182.5078125 c 128,-1,34
 0 221.754264987 0 221.754264987 10.605940423 253.57197854 c 128,-1,35
 21.2118808461 285.389692093 21.2118808461 285.389692093 38.1720410821 304.872838561 c 128,-1,36
 55.132201318 324.355985028 55.132201318 324.355985028 75.6432490965 338.793177064 c 128,-1,37
 96.154296875 353.230369101 96.154296875 353.230369101 116.665344653 359.81827064 c 128,-1,38
 137.176392432 366.406172179 137.176392432 366.406172179 154.136552668 370.190737651 c 128,-1,39
 171.096712904 373.975303123 171.096712904 373.975303123 181.702653327 374.395854687 c 2,40,-1
 192.30859375 374.81640625 l 2,41,42
 191.480380042 377.58856885 191.480380042 377.58856885 190.528379537 382.513123841 c 128,-1,43
 189.576379031 387.437678832 189.576379031 387.437678832 189.976839213 402.198266784 c 128,-1,44
 190.377299396 416.958854737 190.377299396 416.958854737 194.520817037 431.181498841 c 128,-1,45
 198.664334677 445.404142944 198.664334677 445.404142944 211.458339213 464.271954284 c 128,-1,46
 224.25234375 483.139765625 224.25234375 483.139765625 244.65625 498.779296875 c 0,47,48
 265.771640625 514.9640625 265.771640625 514.9640625 288.264265625 522.581837891 c 128,-1,49
 310.756890625 530.199613281 310.756890625 530.199613281 327.77559375 529.511037109 c 128,-1,50
 344.794296875 528.822460937 344.794296875 528.822460937 358.796515625 525.821775391 c 128,-1,51
 372.798734375 522.821089844 372.798734375 522.821089844 380.2089375 518.878318359 c 2,52,-1
 387.619140625 514.935546875 l 1,53,54
 389.755637061 518.763707202 389.755637061 518.763707202 394.015680219 525.115898947 c 128,-1,55
 398.275723376 531.468090692 398.275723376 531.468090692 413.956585406 547.698741678 c 128,-1,56
 429.637447437 563.929392664 429.637447437 563.929392664 448.109664594 576.324617697 c 128,-1,57
 466.58188175 588.719842731 466.58188175 588.719842731 497.617679156 598.863866678 c 128,-1,58
 528.653476563 609.007890625 528.653476563 609.007890625 563.1484375 608.95703125 c 0,0,1
499.458984375 374.94140625 m 2,59,60
 484.795906693 374.72094739 484.795906693 374.72094739 474.418461159 364.186405557 c 128,-1,61
 464.041015625 353.651863725 464.041015625 353.651863725 464.041015625 338.987304688 c 2,62,-1
 464.044921875 338.48046875 l 1,63,-1
 464.044921875 259.37890625 l 1,64,-1
 384.9453125 259.37890625 l 1,65,-1
 384.412109375 259.3828125 l 2,66,67
 369.525634766 259.3828125 369.525634766 259.3828125 358.989868164 248.847045898 c 128,-1,68
 348.454101562 238.311279297 348.454101562 238.311279297 348.454101562 223.424804688 c 128,-1,69
 348.454101562 208.538330078 348.454101562 208.538330078 358.989868164 198.002563477 c 128,-1,70
 369.525634766 187.466796875 369.525634766 187.466796875 384.412109375 187.466796875 c 2,71,-1
 384.9453125 187.470703125 l 1,72,-1
 464.044921875 187.470703125 l 1,73,-1
 464.044921875 108.37109375 l 2,74,75
 464.041992188 93.0227050781 464.041992188 93.0227050781 474.577758789 82.4869384766 c 128,-1,76
 485.113525391 71.951171875 485.113525391 71.951171875 500 71.951171875 c 128,-1,77
 514.886474609 71.951171875 514.886474609 71.951171875 525.422241211 82.4869384766 c 128,-1,78
 535.958007812 93.0227050781 535.958007812 93.0227050781 535.958007812 107.909179688 c 0,79,-1
 535.955078125 187.470703125 l 1,80,-1
 615.0546875 187.470703125 l 1,81,-1
 615.587890625 187.466796875 l 2,82,83
 630.474365234 187.466796875 630.474365234 187.466796875 641.010131836 198.002563477 c 128,-1,84
 651.545898438 208.538330078 651.545898438 208.538330078 651.545898438 223.424804688 c 128,-1,85
 651.545898438 238.311279297 651.545898438 238.311279297 641.010131836 248.847045898 c 128,-1,86
 630.474365234 259.3828125 630.474365234 259.3828125 615.587890625 259.3828125 c 2,87,-1
 615.0546875 259.37890625 l 1,88,-1
 535.955078125 259.37890625 l 1,89,-1
 535.955078125 338.48046875 l 1,90,-1
 535.958984375 338.987304688 l 2,91,92
 535.958984375 353.873779297 535.958984375 353.873779297 525.423217773 364.409545898 c 128,-1,93
 514.887451172 374.9453125 514.887451172 374.9453125 500.000976562 374.9453125 c 2,94,-1
 499.458984375 374.94140625 l 2,59,60
EndSplineSet
EndChar

StartChar: B
Encoding: 66 66 4
Width: 1000
Flags: W
LayerCount: 2
Fore
SplineSet
563.1484375 608.95703125 m 0,1,2
 628.495548456 608.861402122 628.495548456 608.861402122 703.58203125 573.70703125 c 0,3,4
 747.583147321 553.106544962 747.583147321 553.106544962 779.227653422 526.761131294 c 128,-1,5
 810.872159522 500.415717626 810.872159522 500.415717626 826.274595804 474.766656607 c 128,-1,6
 841.677032085 449.117595587 841.677032085 449.117595587 850.073658342 422.888238164 c 128,-1,7
 858.470284598 396.65888074 858.470284598 396.65888074 858.06668764 374.549620574 c 128,-1,8
 857.663090683 352.440360408 857.663090683 352.440360408 855.465080536 335.031493903 c 128,-1,9
 853.267070388 317.622627399 853.267070388 317.622627399 849.710683632 307.757602762 c 2,10,-1
 846.154296875 297.892578125 l 2,11,12
 849.369660722 297.88629386 849.369660722 297.88629386 854.906931571 297.555708849 c 128,-1,13
 860.44420242 297.225123838 860.44420242 297.225123838 876.423750144 294.192901756 c 128,-1,14
 892.403297867 291.160679674 892.403297867 291.160679674 906.936382191 285.894191675 c 128,-1,15
 921.469466514 280.627703676 921.469466514 280.627703676 939.217914684 269.075475098 c 128,-1,16
 956.966362855 257.52324652 956.966362855 257.52324652 969.730546731 241.938396076 c 128,-1,17
 982.494730608 226.353545631 982.494730608 226.353545631 991.247365304 200.8988511 c 128,-1,18
 1000 175.444156569 1000 175.444156569 1000 144.046875 c 128,-1,19
 1000 112.649394133 1000 112.649394133 991.515312291 87.1950078581 c 128,-1,20
 983.030624582 61.7406215835 983.030624582 61.7406215835 969.462599744 46.15401501 c 128,-1,21
 955.894574906 30.5674084366 955.894574906 30.5674084366 939.485861672 19.0176208318 c 128,-1,22
 923.077148438 7.46783322704 923.077148438 7.46783322704 906.668435203 2.19754179574 c 128,-1,23
 890.259721969 -3.07274963557 890.259721969 -3.07274963557 876.691697131 -6.10036386206 c 128,-1,24
 863.123672293 -9.12797808856 863.123672293 -9.12797808856 854.638984584 -9.46437966928 c 2,25,-1
 846.154296875 -9.80078125 l 1,26,-1
 192.306640625 -9.80078125 l 2,27,28
 188.287446021 -9.79288002616 188.287446021 -9.79288002616 181.365875034 -9.37957125142 c 128,-1,29
 174.444304047 -8.96626247668 174.444304047 -8.96626247668 154.46992011 -5.17577108641 c 128,-1,30
 134.495536172 -1.38527969614 134.495536172 -1.38527969614 116.329226893 5.19801279559 c 128,-1,31
 98.1629176143 11.7813052873 98.1629176143 11.7813052873 75.977413732 26.2217895003 c 128,-1,32
 53.7919098497 40.6622737133 53.7919098497 40.6622737133 37.8367205154 60.1434448747 c 128,-1,33
 21.8815311812 79.624616036 21.8815311812 79.624616036 10.9407655906 111.442988024 c 128,-1,34
 0 143.261360013 0 143.261360013 0 182.5078125 c 128,-1,35
 0 221.754264987 0 221.754264987 10.605832707 253.57197854 c 128,-1,36
 21.2116654139 285.389692093 21.2116654139 285.389692093 38.1716533991 304.872838561 c 128,-1,37
 55.1316413842 324.355985028 55.1316413842 324.355985028 75.6424808484 338.793177064 c 128,-1,38
 96.1533203125 353.230369101 96.1533203125 353.230369101 116.664159777 359.81827064 c 128,-1,39
 137.174999241 366.406172179 137.174999241 366.406172179 154.134987226 370.190737651 c 128,-1,40
 171.094975211 373.975303123 171.094975211 373.975303123 181.700807918 374.395854687 c 2,41,-1
 192.306640625 374.81640625 l 2,42,43
 191.478506287 377.58856885 191.478506287 377.58856885 190.526637505 382.513123841 c 128,-1,44
 189.574768722 387.437678832 189.574768722 387.437678832 189.97556562 402.198266784 c 128,-1,45
 190.376362519 416.958854737 190.376362519 416.958854737 194.520137505 431.181498841 c 128,-1,46
 198.663912491 445.404142944 198.663912491 445.404142944 211.45812812 464.271954284 c 128,-1,47
 224.25234375 483.139765625 224.25234375 483.139765625 244.65625 498.779296875 c 0,48,49
 265.771640625 514.9640625 265.771640625 514.9640625 288.264265625 522.581837891 c 128,-1,50
 310.756890625 530.199613281 310.756890625 530.199613281 327.77559375 529.511037109 c 128,-1,51
 344.794296875 528.822460937 344.794296875 528.822460937 358.796515625 525.821775391 c 128,-1,52
 372.798734375 522.821089844 372.798734375 522.821089844 380.2089375 518.878318359 c 2,53,-1
 387.619140625 514.935546875 l 1,54,55
 389.755637061 518.763707202 389.755637061 518.763707202 394.015680219 525.115898947 c 128,-1,56
 398.275723376 531.468090692 398.275723376 531.468090692 413.956585406 547.698741678 c 128,-1,57
 429.637447437 563.929392664 429.637447437 563.929392664 448.109664594 576.324617697 c 128,-1,58
 466.58188175 588.719842731 466.58188175 588.719842731 497.617679156 598.863866678 c 128,-1,59
 528.653476563 609.007890625 528.653476563 609.007890625 563.1484375 608.95703125 c 0,1,2
418.267578125 341.09765625 m 0,60,61
 403.388510037 341.090332072 403.388510037 341.090332072 392.858317519 330.554606603 c 128,-1,62
 382.328125 320.018881134 382.328125 320.018881134 382.328125 305.139648438 c 0,63,64
 382.328125 289.947477528 382.328125 289.947477528 393.220703125 279.357421875 c 2,65,-1
 449.15234375 223.42578125 l 1,66,-1
 393.220703125 167.494140625 l 2,67,68
 382.340820312 156.906157107 382.340820312 156.906157107 382.340820312 141.724609375 c 0,69,70
 382.340820312 126.837402344 382.340820312 126.837402344 392.876220703 116.302001953 c 128,-1,71
 403.411621094 105.766601562 403.411621094 105.766601562 418.298828125 105.766601562 c 0,72,73
 433.480375857 105.766601562 433.480375857 105.766601562 444.068359375 116.646484375 c 2,74,-1
 500 172.578125 l 1,75,-1
 555.931640625 116.646484375 l 2,76,77
 566.519624143 105.766601562 566.519624143 105.766601562 581.701171875 105.766601562 c 0,78,79
 596.588378906 105.766601562 596.588378906 105.766601562 607.123779297 116.302001953 c 128,-1,80
 617.659179688 126.837402344 617.659179688 126.837402344 617.659179688 141.724609375 c 0,81,82
 617.659179688 156.906157107 617.659179688 156.906157107 606.779296875 167.494140625 c 2,83,-1
 550.84765625 223.42578125 l 1,84,-1
 606.779296875 279.357421875 l 2,85,86
 617.672851562 289.948426968 617.672851562 289.948426968 617.672851562 305.139648438 c 0,87,88
 617.672851562 320.026123047 617.672851562 320.026123047 607.137084961 330.561889648 c 128,-1,89
 596.601318359 341.09765625 596.601318359 341.09765625 581.71484375 341.09765625 c 0,90,91
 581.171006944 341.09765625 581.171006944 341.09765625 580.6484375 341.08203125 c 0,92,93
 566.086780719 340.650365079 566.086780719 340.650365079 555.931640625 330.205078125 c 2,94,-1
 500 274.2734375 l 1,95,-1
 444.068359375 330.205078125 l 2,96,97
 433.478303722 341.09765625 433.478303722 341.09765625 418.267578125 341.09765625 c 0,60,61
EndSplineSet
EndChar

StartChar: C
Encoding: 67 67 5
Width: 1000
Flags: W
LayerCount: 2
Fore
SplineSet
563.1484375 608.95703125 m 0,0,1
 628.495548456 608.861402122 628.495548456 608.861402122 703.58203125 573.70703125 c 0,2,3
 747.583147321 553.106544962 747.583147321 553.106544962 779.227653422 526.761131294 c 128,-1,4
 810.872159522 500.415717626 810.872159522 500.415717626 826.274595804 474.766656607 c 128,-1,5
 841.677032085 449.117595587 841.677032085 449.117595587 850.073658342 422.888238164 c 128,-1,6
 858.470284598 396.65888074 858.470284598 396.65888074 858.06668764 374.549620574 c 128,-1,7
 857.663090683 352.440360408 857.663090683 352.440360408 855.465080536 335.031493903 c 128,-1,8
 853.267070388 317.622627399 853.267070388 317.622627399 849.710683632 307.757602762 c 2,9,-1
 846.154296875 297.892578125 l 2,10,11
 849.369660722 297.88629386 849.369660722 297.88629386 854.906931571 297.555708849 c 128,-1,12
 860.44420242 297.225123838 860.44420242 297.225123838 876.423750144 294.192901756 c 128,-1,13
 892.403297867 291.160679674 892.403297867 291.160679674 906.936382191 285.894191675 c 128,-1,14
 921.469466514 280.627703676 921.469466514 280.627703676 939.217914684 269.075475098 c 128,-1,15
 956.966362855 257.52324652 956.966362855 257.52324652 969.730546731 241.938396076 c 128,-1,16
 982.494730608 226.353545631 982.494730608 226.353545631 991.247365304 200.8988511 c 128,-1,17
 1000 175.444156569 1000 175.444156569 1000 144.046875 c 128,-1,18
 1000 112.649394133 1000 112.649394133 991.515312291 87.1950078581 c 128,-1,19
 983.030624582 61.7406215835 983.030624582 61.7406215835 969.462599744 46.15401501 c 128,-1,20
 955.894574906 30.5674084366 955.894574906 30.5674084366 939.485861672 19.0176208318 c 128,-1,21
 923.077148438 7.46783322704 923.077148438 7.46783322704 906.668435203 2.19754179574 c 128,-1,22
 890.259721969 -3.07274963557 890.259721969 -3.07274963557 876.691697131 -6.10036386206 c 128,-1,23
 863.123672293 -9.12797808856 863.123672293 -9.12797808856 854.638984584 -9.46437966928 c 2,24,-1
 846.154296875 -9.80078125 l 1,25,-1
 192.306640625 -9.80078125 l 2,26,27
 188.287446021 -9.79288002616 188.287446021 -9.79288002616 181.365875034 -9.37957125142 c 128,-1,28
 174.444304047 -8.96626247668 174.444304047 -8.96626247668 154.46992011 -5.17577108641 c 128,-1,29
 134.495536172 -1.38527969614 134.495536172 -1.38527969614 116.329226893 5.19801279559 c 128,-1,30
 98.1629176143 11.7813052873 98.1629176143 11.7813052873 75.977413732 26.2217895003 c 128,-1,31
 53.7919098497 40.6622737133 53.7919098497 40.6622737133 37.8367205154 60.1434448747 c 128,-1,32
 21.8815311812 79.624616036 21.8815311812 79.624616036 10.9407655906 111.442988024 c 128,-1,33
 0 143.261360013 0 143.261360013 0 182.5078125 c 128,-1,34
 0 221.754264987 0 221.754264987 10.605832707 253.57197854 c 128,-1,35
 21.2116654139 285.389692093 21.2116654139 285.389692093 38.1716533991 304.872838561 c 128,-1,36
 55.1316413842 324.355985028 55.1316413842 324.355985028 75.6424808484 338.793177064 c 128,-1,37
 96.1533203125 353.230369101 96.1533203125 353.230369101 116.664159777 359.81827064 c 128,-1,38
 137.174999241 366.406172179 137.174999241 366.406172179 154.134987226 370.190737651 c 128,-1,39
 171.094975211 373.975303123 171.094975211 373.975303123 181.700807918 374.395854687 c 2,40,-1
 192.306640625 374.81640625 l 2,41,42
 191.478506287 377.58856885 191.478506287 377.58856885 190.526637505 382.513123841 c 128,-1,43
 189.574768722 387.437678832 189.574768722 387.437678832 189.97556562 402.198266784 c 128,-1,44
 190.376362519 416.958854737 190.376362519 416.958854737 194.520137505 431.181498841 c 128,-1,45
 198.663912491 445.404142944 198.663912491 445.404142944 211.45812812 464.271954284 c 128,-1,46
 224.25234375 483.139765625 224.25234375 483.139765625 244.65625 498.779296875 c 0,47,48
 265.771640625 514.9640625 265.771640625 514.9640625 288.264265625 522.581837891 c 128,-1,49
 310.756890625 530.199613281 310.756890625 530.199613281 327.77559375 529.511037109 c 128,-1,50
 344.794296875 528.822460937 344.794296875 528.822460937 358.796515625 525.821775391 c 128,-1,51
 372.798734375 522.821089844 372.798734375 522.821089844 380.2089375 518.878318359 c 2,52,-1
 387.619140625 514.935546875 l 1,53,54
 389.755637061 518.763707202 389.755637061 518.763707202 394.015680219 525.115898947 c 128,-1,55
 398.275723376 531.468090692 398.275723376 531.468090692 413.956585406 547.698741678 c 128,-1,56
 429.637447437 563.929392664 429.637447437 563.929392664 448.109664594 576.324617697 c 128,-1,57
 466.58188175 588.719842731 466.58188175 588.719842731 497.617679156 598.863866678 c 128,-1,58
 528.653476563 609.007890625 528.653476563 609.007890625 563.1484375 608.95703125 c 0,0,1
499.458984375 374.94140625 m 2,59,60
 484.790047318 374.726806765 484.790047318 374.726806765 474.412601784 364.192264932 c 128,-1,61
 464.03515625 353.6577231 464.03515625 353.6577231 464.03515625 338.993164062 c 2,62,-1
 464.0390625 338.486328125 l 1,63,-1
 464.0390625 178.37109375 l 1,64,-1
 406.0546875 220.439453125 l 2,65,66
 396.477026174 227.600585938 396.477026174 227.600585938 384.51953125 227.600585938 c 0,67,68
 369.632888033 227.600585938 369.632888033 227.600585938 359.097205735 217.065101244 c 128,-1,69
 348.561523438 206.529616551 348.561523438 206.529616551 348.561523438 191.642578125 c 0,70,71
 348.561523438 172.978904077 348.561523438 172.978904077 363.826171875 162.236328125 c 2,72,-1
 478.880859375 78.76171875 l 2,73,74
 479.497308759 78.3417400758 479.497308759 78.3417400758 480.109375 77.9609375 c 0,75,76
 481.710940777 76.9107313732 481.710940777 76.9107313732 483.236328125 76.10546875 c 128,-1,77
 484.89765781 75.2347595224 484.89765781 75.2347595224 486.537109375 74.572265625 c 0,78,79
 493.012809697 71.958984375 493.012809697 71.958984375 499.993164062 71.958984375 c 0,80,81
 505.728864052 71.958984375 505.728864052 71.958984375 511.181640625 73.744140625 c 0,82,83
 512.87775614 74.2995525449 512.87775614 74.2995525449 514.53125 75.029296875 c 0,84,-1
 514.541015625 75.029296875 l 1,85,-1
 514.55078125 75.029296875 l 2,86,87
 516.181729847 75.7523862856 516.181729847 75.7523862856 517.720703125 76.625 c 0,88,89
 519.506426038 77.6190004449 519.506426038 77.6190004449 521.11328125 78.755859375 c 2,90,-1
 636.16796875 162.23046875 l 2,91,92
 651.422851562 172.972397132 651.422851562 172.972397132 651.422851562 191.630859375 c 0,93,94
 651.422851562 198.739480903 651.422851562 198.739480903 648.653823216 205.291190414 c 128,-1,95
 645.884794869 211.842899925 645.884794869 211.842899925 641.204804104 216.656365128 c 128,-1,96
 636.524813339 221.469830332 636.524813339 221.469830332 630.053572971 224.422019271 c 128,-1,97
 623.582332604 227.374208211 623.582332604 227.374208211 616.4765625 227.57421875 c 0,98,99
 615.952880859 227.588867188 615.952880859 227.588867188 615.46484375 227.588867188 c 0,100,101
 603.515204817 227.588867188 603.515204817 227.588867188 593.939453125 220.43359375 c 2,102,-1
 535.955078125 178.365234375 l 1,103,-1
 535.955078125 338.48046875 l 1,104,-1
 535.958984375 338.987304688 l 2,105,106
 535.958984375 353.873779297 535.958984375 353.873779297 525.423217773 364.409545898 c 128,-1,107
 514.887451172 374.9453125 514.887451172 374.9453125 500.000976562 374.9453125 c 2,108,-1
 499.458984375 374.94140625 l 2,59,60
EndSplineSet
EndChar

StartChar: D
Encoding: 68 68 6
Width: 1000
Flags: W
LayerCount: 2
Fore
SplineSet
563.1484375 608.95703125 m 0,1,2
 628.495548456 608.861402122 628.495548456 608.861402122 703.58203125 573.70703125 c 0,3,4
 747.583147321 553.106544962 747.583147321 553.106544962 779.227653422 526.761131294 c 128,-1,5
 810.872159522 500.415717626 810.872159522 500.415717626 826.274595804 474.766656607 c 128,-1,6
 841.677032085 449.117595587 841.677032085 449.117595587 850.073658342 422.888238164 c 128,-1,7
 858.470284598 396.65888074 858.470284598 396.65888074 858.06668764 374.549620574 c 128,-1,8
 857.663090683 352.440360408 857.663090683 352.440360408 855.465080536 335.031493903 c 128,-1,9
 853.267070388 317.622627399 853.267070388 317.622627399 849.710683632 307.757602762 c 2,10,-1
 846.154296875 297.892578125 l 2,11,12
 849.369660722 297.88629386 849.369660722 297.88629386 854.906931571 297.555708849 c 128,-1,13
 860.44420242 297.225123838 860.44420242 297.225123838 876.423750144 294.192901756 c 128,-1,14
 892.403297867 291.160679674 892.403297867 291.160679674 906.936382191 285.894191675 c 128,-1,15
 921.469466514 280.627703676 921.469466514 280.627703676 939.217914684 269.075475098 c 128,-1,16
 956.966362855 257.52324652 956.966362855 257.52324652 969.730546731 241.938396076 c 128,-1,17
 982.494730608 226.353545631 982.494730608 226.353545631 991.247365304 200.8988511 c 128,-1,18
 1000 175.444156569 1000 175.444156569 1000 144.046875 c 128,-1,19
 1000 112.649394133 1000 112.649394133 991.515312291 87.1950078581 c 128,-1,20
 983.030624582 61.7406215835 983.030624582 61.7406215835 969.462599744 46.15401501 c 128,-1,21
 955.894574906 30.5674084366 955.894574906 30.5674084366 939.485861672 19.0176208318 c 128,-1,22
 923.077148438 7.46783322704 923.077148438 7.46783322704 906.668435203 2.19754179574 c 128,-1,23
 890.259721969 -3.07274963557 890.259721969 -3.07274963557 876.691697131 -6.10036386206 c 128,-1,24
 863.123672293 -9.12797808856 863.123672293 -9.12797808856 854.638984584 -9.46437966928 c 2,25,-1
 846.154296875 -9.80078125 l 1,26,-1
 192.306640625 -9.80078125 l 2,27,28
 188.287446021 -9.79288002616 188.287446021 -9.79288002616 181.365875034 -9.37957125142 c 128,-1,29
 174.444304047 -8.96626247668 174.444304047 -8.96626247668 154.46992011 -5.17577108641 c 128,-1,30
 134.495536172 -1.38527969614 134.495536172 -1.38527969614 116.329226893 5.19801279559 c 128,-1,31
 98.1629176143 11.7813052873 98.1629176143 11.7813052873 75.977413732 26.2217895003 c 128,-1,32
 53.7919098497 40.6622737133 53.7919098497 40.6622737133 37.8367205154 60.1434448747 c 128,-1,33
 21.8815311812 79.624616036 21.8815311812 79.624616036 10.9407655906 111.442988024 c 128,-1,34
 0 143.261360013 0 143.261360013 0 182.5078125 c 128,-1,35
 0 221.754264987 0 221.754264987 10.605832707 253.57197854 c 128,-1,36
 21.2116654139 285.389692093 21.2116654139 285.389692093 38.1716533991 304.872838561 c 128,-1,37
 55.1316413842 324.355985028 55.1316413842 324.355985028 75.6424808484 338.793177064 c 128,-1,38
 96.1533203125 353.230369101 96.1533203125 353.230369101 116.664159777 359.81827064 c 128,-1,39
 137.174999241 366.406172179 137.174999241 366.406172179 154.134987226 370.190737651 c 128,-1,40
 171.094975211 373.975303123 171.094975211 373.975303123 181.700807918 374.395854687 c 2,41,-1
 192.306640625 374.81640625 l 2,42,43
 191.478506287 377.58856885 191.478506287 377.58856885 190.526637505 382.513123841 c 128,-1,44
 189.574768722 387.437678832 189.574768722 387.437678832 189.97556562 402.198266784 c 128,-1,45
 190.376362519 416.958854737 190.376362519 416.958854737 194.520137505 431.181498841 c 128,-1,46
 198.663912491 445.404142944 198.663912491 445.404142944 211.45812812 464.271954284 c 128,-1,47
 224.25234375 483.139765625 224.25234375 483.139765625 244.65625 498.779296875 c 0,48,49
 265.771640625 514.9640625 265.771640625 514.9640625 288.264265625 522.581837891 c 128,-1,50
 310.756890625 530.199613281 310.756890625 530.199613281 327.77559375 529.511037109 c 128,-1,51
 344.794296875 528.822460937 344.794296875 528.822460937 358.796515625 525.821775391 c 128,-1,52
 372.798734375 522.821089844 372.798734375 522.821089844 380.2089375 518.878318359 c 2,53,-1
 387.619140625 514.935546875 l 1,54,55
 389.755637061 518.763707202 389.755637061 518.763707202 394.015680219 525.115898947 c 128,-1,56
 398.275723376 531.468090692 398.275723376 531.468090692 413.956585406 547.698741678 c 128,-1,57
 429.637447437 563.929392664 429.637447437 563.929392664 448.109664594 576.324617697 c 128,-1,58
 466.58188175 588.719842731 466.58188175 588.719842731 497.617679156 598.863866678 c 128,-1,59
 528.653476563 609.007890625 528.653476563 609.007890625 563.1484375 608.95703125 c 0,1,2
500 402.3828125 m 128,-1,61
 427.840332031 402.3828125 427.840332031 402.3828125 376.619384766 351.161865234 c 128,-1,62
 325.3984375 299.940917969 325.3984375 299.940917969 325.3984375 227.78125 c 0,63,64
 325.3984375 199.400732166 325.3984375 199.400732166 334.229856415 172.767437224 c 128,-1,65
 343.061275329 146.134142282 343.061275329 146.134142282 359.239581085 124.666140901 c 128,-1,66
 375.417886842 103.198139521 375.417886842 103.198139521 396.885575165 87.0195622239 c 128,-1,67
 418.353263488 70.8409849272 418.353263488 70.8409849272 444.986393585 62.0093596511 c 128,-1,68
 471.619523683 53.177734375 471.619523683 53.177734375 500 53.177734375 c 0,69,70
 572.159482277 53.177734375 572.159482277 53.177734375 623.380522388 104.399565356 c 128,-1,71
 674.6015625 155.621396337 674.6015625 155.621396337 674.6015625 227.78125 c 128,-1,72
 674.6015625 299.940917969 674.6015625 299.940917969 623.380615234 351.161865234 c 128,-1,60
 572.159667969 402.3828125 572.159667969 402.3828125 500 402.3828125 c 128,-1,61
500 365.720703125 m 128,-1,74
 557.299747556 365.720703125 557.299747556 365.720703125 597.620576903 325.400663333 c 128,-1,75
 637.94140625 285.080623542 637.94140625 285.080623542 637.94140625 227.78125 c 128,-1,76
 637.94140625 170.481689453 637.94140625 170.481689453 597.620483398 130.160766602 c 128,-1,77
 557.299560547 89.83984375 557.299560547 89.83984375 500 89.83984375 c 128,-1,78
 442.700439453 89.83984375 442.700439453 89.83984375 402.379516602 130.160766602 c 128,-1,79
 362.05859375 170.481689453 362.05859375 170.481689453 362.05859375 227.78125 c 128,-1,80
 362.05859375 285.080623542 362.05859375 285.080623542 402.379423097 325.400663333 c 128,-1,73
 442.700252444 365.720703125 442.700252444 365.720703125 500 365.720703125 c 128,-1,74
499.76171875 352.0234375 m 0,81,82
 496.597903204 351.975953287 496.597903204 351.975953287 493.716456564 350.699532986 c 128,-1,83
 490.835009924 349.423112685 490.835009924 349.423112685 488.751118509 347.30769968 c 128,-1,84
 486.667227094 345.192286676 486.667227094 345.192286676 485.434199484 342.292001248 c 128,-1,85
 484.201171875 339.39171582 484.201171875 339.39171582 484.201171875 336.227539062 c 0,86,-1
 484.203125 218.88671875 l 2,87,88
 484.20385742 212.346941371 484.20385742 212.346941371 488.832510758 207.718880842 c 128,-1,89
 493.461164097 203.090820312 493.461164097 203.090820312 500.000976562 203.090820312 c 0,90,91
 503.756989324 203.090820312 503.756989324 203.090820312 507.107421875 204.779296875 c 2,92,-1
 572.845703125 237.8984375 l 2,93,94
 581.745117188 242.218988025 581.745117188 242.218988025 581.745117188 252.110351562 c 0,95,96
 581.745117188 255.32235817 581.745117188 255.32235817 580.493271781 258.247599449 c 128,-1,97
 579.241426374 261.172840728 579.241426374 261.172840728 577.125731515 263.288334999 c 128,-1,98
 575.010036656 265.40382927 575.010036656 265.40382927 572.084671927 266.655527916 c 128,-1,99
 569.159307199 267.907226562 569.159307199 267.907226562 565.947265625 267.907226562 c 0,100,101
 562.068722098 267.907226562 562.068722098 267.907226562 558.630859375 266.111328125 c 2,102,-1
 515.794921875 244.53125 l 1,103,-1
 515.794921875 336.00390625 l 2,104,105
 515.796875 342.767897806 515.796875 342.767897806 511.167930983 347.396644215 c 128,-1,106
 506.538986967 352.025390625 506.538986967 352.025390625 499.76171875 352.0234375 c 0,81,82
EndSplineSet
EndChar

StartChar: E
Encoding: 69 69 7
Width: 1000
Flags: W
LayerCount: 2
Fore
SplineSet
563.1484375 608.95703125 m 0,1,2
 628.496899279 608.861400145 628.496899279 608.861400145 703.58203125 573.70703125 c 0,3,4
 747.583147321 553.106544962 747.583147321 553.106544962 779.227653422 526.761131294 c 128,-1,5
 810.872159522 500.415717626 810.872159522 500.415717626 826.274595804 474.766656607 c 128,-1,6
 841.677032085 449.117595587 841.677032085 449.117595587 850.073658342 422.888238164 c 128,-1,7
 858.470284598 396.65888074 858.470284598 396.65888074 858.06668764 374.549620574 c 128,-1,8
 857.663090683 352.440360408 857.663090683 352.440360408 855.465080536 335.031493903 c 128,-1,9
 853.267070388 317.622627399 853.267070388 317.622627399 849.710683632 307.757602762 c 2,10,-1
 846.154296875 297.892578125 l 2,11,12
 849.369660722 297.88629386 849.369660722 297.88629386 854.906931571 297.555708849 c 128,-1,13
 860.44420242 297.225123838 860.44420242 297.225123838 876.423750144 294.192901756 c 128,-1,14
 892.403297867 291.160679674 892.403297867 291.160679674 906.936382191 285.894191675 c 128,-1,15
 921.469466514 280.627703676 921.469466514 280.627703676 939.217914684 269.075475098 c 128,-1,16
 956.966362855 257.52324652 956.966362855 257.52324652 969.730546731 241.938396076 c 128,-1,17
 982.494730608 226.353545631 982.494730608 226.353545631 991.247365304 200.8988511 c 128,-1,18
 1000 175.444156569 1000 175.444156569 1000 144.046875 c 128,-1,19
 1000 112.649394133 1000 112.649394133 991.515312291 87.1950078581 c 128,-1,20
 983.030624582 61.7406215835 983.030624582 61.7406215835 969.462599744 46.15401501 c 128,-1,21
 955.894574906 30.5674084366 955.894574906 30.5674084366 939.485861672 19.0176208318 c 128,-1,22
 923.077148438 7.46783322704 923.077148438 7.46783322704 906.668435203 2.19754179574 c 128,-1,23
 890.259721969 -3.07274963557 890.259721969 -3.07274963557 876.691697131 -6.10036386206 c 128,-1,24
 863.123672293 -9.12797808856 863.123672293 -9.12797808856 854.638984584 -9.46437966928 c 2,25,-1
 846.154296875 -9.80078125 l 1,26,-1
 192.306640625 -9.80078125 l 2,27,28
 188.287446021 -9.79288002616 188.287446021 -9.79288002616 181.365875034 -9.37957125142 c 128,-1,29
 174.444304047 -8.96626247668 174.444304047 -8.96626247668 154.46992011 -5.17577108641 c 128,-1,30
 134.495536172 -1.38527969614 134.495536172 -1.38527969614 116.329226893 5.19801279559 c 128,-1,31
 98.1629176143 11.7813052873 98.1629176143 11.7813052873 75.977413732 26.2217895003 c 128,-1,32
 53.7919098497 40.6622737133 53.7919098497 40.6622737133 37.8367205154 60.1434448747 c 128,-1,33
 21.8815311812 79.624616036 21.8815311812 79.624616036 10.9407655906 111.442988024 c 128,-1,34
 0 143.261360013 0 143.261360013 0 182.5078125 c 128,-1,35
 0 221.754264987 0 221.754264987 10.605832707 253.57197854 c 128,-1,36
 21.2116654139 285.389692093 21.2116654139 285.389692093 38.1716533991 304.872838561 c 128,-1,37
 55.1316413842 324.355985028 55.1316413842 324.355985028 75.6424808484 338.793177064 c 128,-1,38
 96.1533203125 353.230369101 96.1533203125 353.230369101 116.664159777 359.81827064 c 128,-1,39
 137.174999241 366.406172179 137.174999241 366.406172179 154.134987226 370.190737651 c 128,-1,40
 171.094975211 373.975303123 171.094975211 373.975303123 181.700807918 374.395854687 c 2,41,-1
 192.306640625 374.81640625 l 2,42,43
 191.478506287 377.58856885 191.478506287 377.58856885 190.526637505 382.513123841 c 128,-1,44
 189.574768722 387.437678832 189.574768722 387.437678832 189.97556562 402.198266784 c 128,-1,45
 190.376362519 416.958854737 190.376362519 416.958854737 194.520137505 431.181498841 c 128,-1,46
 198.663912491 445.404142944 198.663912491 445.404142944 211.45812812 464.271954284 c 128,-1,47
 224.25234375 483.139765625 224.25234375 483.139765625 244.65625 498.779296875 c 0,48,49
 265.771640625 514.9640625 265.771640625 514.9640625 288.264265625 522.581837891 c 128,-1,50
 310.756890625 530.199613281 310.756890625 530.199613281 327.77559375 529.511037109 c 128,-1,51
 344.794296875 528.822460937 344.794296875 528.822460937 358.796515625 525.821775391 c 128,-1,52
 372.798734375 522.821089844 372.798734375 522.821089844 380.2089375 518.878318359 c 2,53,-1
 387.619140625 514.935546875 l 1,54,55
 389.755637061 518.763707202 389.755637061 518.763707202 394.015680219 525.115898947 c 128,-1,56
 398.275723376 531.468090692 398.275723376 531.468090692 413.956585406 547.698741678 c 128,-1,57
 429.637447437 563.929392664 429.637447437 563.929392664 448.109664594 576.324617697 c 128,-1,58
 466.58188175 588.719842731 466.58188175 588.719842731 497.617679156 598.863866678 c 128,-1,59
 528.653476563 609.007890625 528.653476563 609.007890625 563.1484375 608.95703125 c 0,1,2
595.271484375 359.37109375 m 2,60,61
 594.609178654 359.35176918 594.609178654 359.35176918 593.943359375 359.2734375 c 0,62,63
 518.896964997 350.47120098 518.896964997 350.47120098 444.083984375 340.783203125 c 0,64,65
 378.379401874 332.274597507 378.379401874 332.274597507 340.818359375 326.4921875 c 0,66,67
 318.246530504 323.017322042 318.246530504 323.017322042 306.1953125 320.572265625 c 0,68,69
 299.208848059 319.154790668 299.208848059 319.154790668 295.333984375 317.990234375 c 0,70,71
 292.444049429 317.121413168 292.444049429 317.121413168 290.439453125 316.126953125 c 0,72,73
 288.186369137 315.00811963 288.186369137 315.00811963 286.44921875 313.466796875 c 0,74,75
 281.099609375 308.720244868 281.099609375 308.720244868 281.099609375 301.68359375 c 0,76,77
 281.103144244 298.687792059 281.103144244 298.687792059 282.2421875 295.91015625 c 0,78,79
 282.521722984 291.290743911 282.521722984 291.290743911 285.509765625 287.7578125 c 2,80,-1
 456.4921875 80.3984375 l 2,81,82
 460.670557459 75.33203125 460.670557459 75.33203125 467.237304688 75.33203125 c 0,83,84
 471.334395559 75.33203125 471.334395559 75.33203125 474.779296875 77.55078125 c 2,85,-1
 733.82421875 244.4609375 l 2,86,87
 740.206054688 248.574541202 740.206054688 248.574541202 740.206054688 256.16796875 c 0,88,89
 740.206054688 268.294584559 740.206054688 268.294584559 728.1953125 269.962890625 c 2,90,-1
 610.990234375 286.234375 l 1,91,-1
 610.990234375 344.107421875 l 2,92,93
 610.990234375 350.429030615 610.990234375 350.429030615 606.51558723 354.903480151 c 128,-1,94
 602.040940085 359.377929688 602.040940085 359.377929688 595.71875 359.377929688 c 2,95,-1
 595.271484375 359.37109375 l 2,60,61
580.451171875 326.90234375 m 1,96,-1
 580.451171875 198.751953125 l 1,97,-1
 347.744140625 296.63671875 l 1,98,99
 385.465810237 302.400215066 385.465810237 302.400215066 448.005859375 310.498046875 c 0,100,101
 512.739851594 318.880463977 512.739851594 318.880463977 580.451171875 326.90234375 c 1,96,-1
338.34375 267.4609375 m 1,102,-1
 568.1015625 170.814453125 l 1,103,-1
 470.103515625 107.671875 l 1,104,-1
 338.34375 267.4609375 l 1,102,-1
610.990234375 258.115234375 m 1,105,-1
 687.173828125 247.537109375 l 1,106,-1
 610.990234375 198.44921875 l 1,107,-1
 610.990234375 258.115234375 l 1,105,-1
EndSplineSet
EndChar

StartChar: F
Encoding: 70 70 8
Width: 1000
VWidth: 0
LayerCount: 2
Fore
SplineSet
563.1484375 609.37890625 m 0,1,2
 628.495548456 609.283277122 628.495548456 609.283277122 703.58203125 574.12890625 c 0,3,4
 738.185378086 557.92827691 738.185378086 557.92827691 765.188642839 538.134209778 c 128,-1,5
 792.191907592 518.340142646 792.191907592 518.340142646 808.594367384 498.562163679 c 128,-1,6
 824.996827177 478.784184711 824.996827177 478.784184711 836.302186649 457.807783381 c 128,-1,7
 847.607546122 436.83138205 847.607546122 436.83138205 851.830242727 417.52194645 c 128,-1,8
 856.052939333 398.212510851 856.052939333 398.212510851 857.613840027 380.149277508 c 128,-1,9
 859.174740722 362.086044165 859.174740722 362.086044165 857.171120642 347.340654119 c 128,-1,10
 855.167500563 332.595264074 855.167500563 332.595264074 852.937388981 321.540700905 c 128,-1,11
 850.7072774 310.486137736 850.7072774 310.486137736 848.430787138 304.40029543 c 2,12,-1
 846.154296875 298.314453125 l 2,13,14
 849.369660722 298.30816886 849.369660722 298.30816886 854.906931571 297.977583849 c 128,-1,15
 860.44420242 297.646998838 860.44420242 297.646998838 876.423750144 294.614776756 c 128,-1,16
 892.403297867 291.582554674 892.403297867 291.582554674 906.936382191 286.316066675 c 128,-1,17
 921.469466514 281.049578676 921.469466514 281.049578676 939.217914684 269.497350098 c 128,-1,18
 956.966362855 257.94512152 956.966362855 257.94512152 969.730546731 242.360271076 c 128,-1,19
 982.494730608 226.775420631 982.494730608 226.775420631 991.247365304 201.3207261 c 128,-1,20
 1000 175.866031569 1000 175.866031569 1000 144.46875 c 128,-1,21
 1000 113.071468431 1000 113.071468431 991.515312291 87.6171898726 c 128,-1,22
 983.030624582 62.1629113141 983.030624582 62.1629113141 969.462599744 46.5763175527 c 128,-1,23
 955.894574906 30.9897237913 955.894574906 30.9897237913 939.485861672 19.4399053427 c 128,-1,24
 923.077148438 7.89008689413 923.077148438 7.89008689413 906.668435203 2.61972475932 c 128,-1,25
 890.259721969 -2.65063737549 890.259721969 -2.65063737549 876.691697131 -5.67831850932 c 128,-1,26
 863.123672293 -8.70599964316 863.123672293 -8.70599964316 854.638984584 -9.04245294658 c 2,27,-1
 846.154296875 -9.37890625 l 1,28,-1
 192.30859375 -9.37890625 l 2,29,30
 188.289358326 -9.37100502616 188.289358326 -9.37100502616 181.367717042 -8.95769625142 c 128,-1,31
 174.446075757 -8.54438747668 174.446075757 -8.54438747668 154.471488953 -4.75389608641 c 128,-1,32
 134.496902149 -0.963404696135 134.496902149 -0.963404696135 116.330408368 5.61988779559 c 128,-1,33
 98.1639145869 12.2031802873 98.1639145869 12.2031802873 75.9781853818 26.6436645003 c 128,-1,34
 53.7924561767 41.0841487133 53.7924561767 41.0841487133 37.8371047967 60.5653198747 c 128,-1,35
 21.8817534167 80.046491036 21.8817534167 80.046491036 10.9408767084 111.864863024 c 128,-1,36
 0 143.683235013 0 143.683235013 0 182.9296875 c 128,-1,37
 0 222.176139987 0 222.176139987 10.605940423 253.99385354 c 128,-1,38
 21.2118808461 285.811567093 21.2118808461 285.811567093 38.1720410821 305.294713561 c 128,-1,39
 55.132201318 324.777860028 55.132201318 324.777860028 75.6432490965 339.215052064 c 128,-1,40
 96.154296875 353.652244101 96.154296875 353.652244101 116.665344653 360.24014564 c 128,-1,41
 137.176392432 366.828047179 137.176392432 366.828047179 154.136552668 370.612612651 c 128,-1,42
 171.096712904 374.397178123 171.096712904 374.397178123 181.702653327 374.817729687 c 2,43,-1
 192.30859375 375.23828125 l 2,44,45
 191.480380042 378.01044385 191.480380042 378.01044385 190.528379537 382.934998841 c 128,-1,46
 189.576379031 387.859553832 189.576379031 387.859553832 189.976839213 402.620141784 c 128,-1,47
 190.377299396 417.380729737 190.377299396 417.380729737 194.520817037 431.603373841 c 128,-1,48
 198.664334677 445.826017944 198.664334677 445.826017944 211.458339213 464.693829284 c 128,-1,49
 224.25234375 483.561640625 224.25234375 483.561640625 244.65625 499.201171875 c 0,50,51
 265.771640625 515.3859375 265.771640625 515.3859375 288.264265625 523.003712891 c 128,-1,52
 310.756890625 530.621488281 310.756890625 530.621488281 327.77559375 529.932912109 c 128,-1,53
 344.794296875 529.244335937 344.794296875 529.244335937 358.796515625 526.243650391 c 128,-1,54
 372.798734375 523.242964844 372.798734375 523.242964844 380.2089375 519.300193359 c 2,55,-1
 387.619140625 515.357421875 l 1,56,57
 389.755637061 519.185582202 389.755637061 519.185582202 394.015680219 525.537773947 c 128,-1,58
 398.275723376 531.889965692 398.275723376 531.889965692 413.956585406 548.120616678 c 128,-1,59
 429.637447437 564.351267664 429.637447437 564.351267664 448.109664594 576.746492697 c 128,-1,60
 466.58188175 589.141717731 466.58188175 589.141717731 497.617679156 599.285741678 c 128,-1,61
 528.653476563 609.429765625 528.653476563 609.429765625 563.1484375 609.37890625 c 0,1,2
EndSplineSet
EndChar

StartChar: a
Encoding: 97 97 9
Width: 1000
VWidth: 0
LayerCount: 2
Fore
SplineSet
403.11328125 691.611328125 m 0,1,2
 425.158300619 704.352539062 425.158300619 704.352539062 450.620117188 704.352539062 c 0,3,4
 463.801007351 704.352539062 463.801007351 704.352539062 476.487304688 700.760742188 c 2,5,-1
 775.907226562 620.53125 l 2,6,7
 798.49943124 617.718992189 798.49943124 617.718992189 817.669454164 604.106512277 c 128,-1,8
 836.839477088 590.494032364 836.839477088 590.494032364 847.979308857 569.789321057 c 128,-1,9
 859.119140625 549.084609749 859.119140625 549.084609749 859.119140625 526.318359375 c 0,10,11
 859.119140625 507.313496642 859.119140625 507.313496642 851.805664062 489.776367188 c 2,12,-1
 771.447265625 189.875 l 2,13,14
 763.94799778 160.200194255 763.94799778 160.200194255 736.978148735 139.198241659 c 128,-1,15
 710.00829969 118.196289062 710.00829969 118.196289062 679.400390625 118.196289062 c 0,16,17
 640.094970703 118.196289062 640.094970703 118.196289062 612.27746582 146.013793945 c 128,-1,18
 584.459960938 173.831298828 584.459960938 173.831298828 584.459960938 213.13671875 c 0,19,20
 584.459960938 226.325985405 584.459960938 226.325985405 588.0546875 239.013671875 c 2,21,-1
 612.131835938 328.869140625 l 1,22,-1
 284.44921875 139.681640625 l 2,23,24
 261.981228442 126.282226562 261.981228442 126.282226562 235.821289062 126.282226562 c 0,25,26
 196.515869141 126.282226562 196.515869141 126.282226562 168.698364258 154.099731445 c 128,-1,27
 140.880859375 181.917236328 140.880859375 181.917236328 140.880859375 221.22265625 c 0,28,29
 140.880859375 236.348455821 140.880859375 236.348455821 147.392080658 252.820654316 c 128,-1,30
 153.903301941 269.292852811 153.903301941 269.292852811 165.108244863 283.011051414 c 128,-1,31
 176.313187784 296.729250016 176.313187784 296.729250016 189.518554688 304.106445312 c 2,32,-1
 517.19921875 493.29296875 l 1,33,-1
 427.346679688 517.369140625 l 2,34,35
 412.774336239 521.053865352 412.774336239 521.053865352 399.503267669 530.266752542 c 128,-1,36
 386.232199099 539.479639732 386.232199099 539.479639732 376.63459549 551.805894553 c 128,-1,37
 367.036991881 564.132149375 367.036991881 564.132149375 361.35833969 579.256651223 c 128,-1,38
 355.6796875 594.381153072 355.6796875 594.381153072 355.6796875 609.412109375 c 0,39,40
 355.6796875 632.093251541 355.6796875 632.093251541 369.577737998 656.177909887 c 128,-1,41
 383.475788496 680.262568233 383.475788496 680.262568233 403.11328125 691.611328125 c 0,1,2
423.298828125 -114.639648438 m 1,42,43
 416.737304688 -126.319335938 416.737304688 -126.319335938 403.220703125 -135.2421875 c 128,-1,44
 389.8359375 -144.034179688 389.8359375 -144.034179688 367.52734375 -144.034179688 c 0,45,46
 338.395507812 -144.034179688 338.395507812 -144.034179688 321.467773438 -126.1875 c 128,-1,47
 304.5390625 -108.209960938 304.5390625 -108.209960938 304.5390625 -73.8291015625 c 2,48,-1
 304.5390625 -17.1396484375 l 2,49,50
 304.5390625 16.84765625 304.5390625 16.84765625 320.680664062 34.6943359375 c 128,-1,51
 336.821289062 52.541015625 336.821289062 52.541015625 364.772460938 52.541015625 c 0,52,53
 393.1171875 52.541015625 393.1171875 52.541015625 407.2890625 37.9755859375 c 128,-1,54
 421.461914062 23.541015625 421.461914062 23.541015625 423.166992188 -4.41015625 c 1,55,-1
 397.31640625 -4.41015625 l 1,56,57
 396.66015625 13.830078125 396.66015625 13.830078125 389.048828125 22.884765625 c 128,-1,58
 381.4375 32.0703125 381.4375 32.0703125 365.166015625 32.0703125 c 0,59,60
 348.630859375 32.0703125 348.630859375 32.0703125 339.708007812 19.7353515625 c 128,-1,61
 330.784179688 7.53125 330.784179688 7.53125 330.784179688 -16.876953125 c 2,62,-1
 330.784179688 -73.8291015625 l 2,63,64
 330.784179688 -98.892578125 330.784179688 -98.892578125 340.364257812 -111.359375 c 128,-1,65
 349.943359375 -123.826171875 349.943359375 -123.826171875 367.52734375 -123.826171875 c 0,66,67
 380.387695312 -123.826171875 380.387695312 -123.826171875 386.818359375 -119.364257812 c 128,-1,68
 393.37890625 -114.771484375 393.37890625 -114.771484375 396.921875 -107.291015625 c 2,69,-1
 396.921875 -63.85546875 l 1,70,-1
 367.396484375 -63.85546875 l 1,71,-1
 367.396484375 -44.5654296875 l 1,72,-1
 423.298828125 -44.5654296875 l 1,73,-1
 423.298828125 -114.639648438 l 1,42,43
550.0625 -52.5703125 m 1,74,-1
 483.400390625 -52.5703125 l 1,75,-1
 483.400390625 -121.0703125 l 1,76,-1
 560.823242188 -121.0703125 l 1,77,-1
 560.823242188 -141.278320312 l 1,78,-1
 457.0234375 -141.278320312 l 1,79,-1
 457.0234375 49.7861328125 l 1,80,-1
 560.166992188 49.7861328125 l 1,81,-1
 560.166992188 29.314453125 l 1,82,-1
 483.400390625 29.314453125 l 1,83,-1
 483.400390625 -32.23046875 l 1,84,-1
 550.0625 -32.23046875 l 1,85,-1
 550.0625 -52.5703125 l 1,74,-1
695.4609375 29.314453125 m 1,86,-1
 649.006835938 29.314453125 l 1,87,-1
 649.006835938 -141.278320312 l 1,88,-1
 622.892578125 -141.278320312 l 1,89,-1
 622.892578125 29.314453125 l 1,90,-1
 576.5703125 29.314453125 l 1,91,-1
 576.5703125 49.7861328125 l 1,92,-1
 695.4609375 49.7861328125 l 1,93,-1
 695.4609375 29.314453125 l 1,86,-1
EndSplineSet
EndChar

StartChar: c
Encoding: 99 99 10
Width: 1000
VWidth: 0
LayerCount: 2
Fore
SplineSet
403.11328125 691.611328125 m 0,1,2
 425.158300619 704.352539062 425.158300619 704.352539062 450.620117188 704.352539062 c 0,3,4
 463.801007351 704.352539062 463.801007351 704.352539062 476.487304688 700.760742188 c 2,5,-1
 775.907226562 620.53125 l 1,6,7
 810.357361046 616.242195073 810.357361046 616.242195073 834.738250836 588.637973888 c 128,-1,8
 859.119140625 561.033752704 859.119140625 561.033752704 859.119140625 526.318359375 c 0,9,10
 859.119140625 507.314289183 859.119140625 507.314289183 851.805664062 489.775390625 c 2,11,-1
 771.447265625 189.875 l 2,12,13
 763.94799778 160.200194255 763.94799778 160.200194255 736.978148735 139.198241659 c 128,-1,14
 710.00829969 118.196289062 710.00829969 118.196289062 679.400390625 118.196289062 c 0,15,16
 653.624095901 118.196289062 653.624095901 118.196289062 631.752134001 130.906369977 c 128,-1,17
 609.880172101 143.616450892 609.880172101 143.616450892 597.170066519 165.488161273 c 128,-1,18
 584.459960938 187.359871654 584.459960938 187.359871654 584.459960938 213.135742188 c 0,19,20
 584.459960938 226.325985405 584.459960938 226.325985405 588.0546875 239.013671875 c 2,21,-1
 612.131835938 328.868164062 l 1,22,-1
 284.44921875 139.680664062 l 2,23,24
 261.979899293 126.282226562 261.979899293 126.282226562 235.821289062 126.282226562 c 0,25,26
 196.515869141 126.282226562 196.515869141 126.282226562 168.698364258 154.099731445 c 128,-1,27
 140.880859375 181.917236328 140.880859375 181.917236328 140.880859375 221.22265625 c 0,28,29
 140.880859375 236.348455821 140.880859375 236.348455821 147.392080658 252.820654316 c 128,-1,30
 153.903301941 269.292852811 153.903301941 269.292852811 165.108244863 283.011051414 c 128,-1,31
 176.313187784 296.729250016 176.313187784 296.729250016 189.518554688 304.106445312 c 2,32,-1
 517.19921875 493.29296875 l 1,33,-1
 427.346679688 517.369140625 l 2,34,35
 407.889475374 522.288558201 407.889475374 522.288558201 391.379107125 536.359571019 c 128,-1,36
 374.868738876 550.430583837 374.868738876 550.430583837 365.274213188 569.886522731 c 128,-1,37
 355.6796875 589.342461625 355.6796875 589.342461625 355.6796875 609.412109375 c 0,38,39
 355.6796875 620.551903668 355.6796875 620.551903668 359.438078239 632.868990308 c 128,-1,40
 363.196468979 645.186076948 363.196468979 645.186076948 369.548677132 656.194074267 c 128,-1,41
 375.900885284 667.202071586 375.900885284 667.202071586 384.6845382 676.619509107 c 128,-1,42
 393.468191116 686.036946627 393.468191116 686.036946627 403.11328125 691.611328125 c 0,1,2
256.248046875 -65.955078125 m 1,43,-1
 256.248046875 -141.279296875 l 1,44,-1
 229.872070312 -141.279296875 l 1,45,-1
 229.872070312 49.78515625 l 1,46,-1
 290.104492188 49.78515625 l 2,47,48
 316.086914062 49.78515625 316.086914062 49.78515625 330.390625 34.0380859375 c 128,-1,49
 344.694335938 18.4228515625 344.694335938 18.4228515625 344.694335938 -8.0849609375 c 128,-1,50
 344.694335938 -34.7236328125 344.694335938 -34.7236328125 330.390625 -50.33984375 c 128,-1,51
 316.21875 -65.955078125 316.21875 -65.955078125 290.104492188 -65.955078125 c 2,52,-1
 256.248046875 -65.955078125 l 1,43,-1
256.248046875 -45.484375 m 1,53,-1
 290.104492188 -45.484375 l 2,54,55
 304.408203125 -45.484375 304.408203125 -45.484375 311.36328125 -35.1171875 c 128,-1,56
 318.318359375 -24.7509765625 318.318359375 -24.7509765625 318.318359375 -8.34765625 c 128,-1,57
 318.318359375 8.1875 318.318359375 8.1875 311.36328125 18.685546875 c 128,-1,58
 304.408203125 29.314453125 304.408203125 29.314453125 290.104492188 29.314453125 c 2,59,-1
 256.248046875 29.314453125 l 1,60,-1
 256.248046875 -45.484375 l 1,53,-1
492.192382812 -72.123046875 m 2,61,62
 492.192382812 -106.766601562 492.192382812 -106.766601562 475.657226562 -125.400390625 c 128,-1,63
 459.123046875 -144.034179688 459.123046875 -144.034179688 430.384765625 -144.034179688 c 0,64,65
 402.040039062 -144.034179688 402.040039062 -144.034179688 385.899414062 -125.400390625 c 128,-1,66
 369.889648438 -106.766601562 369.889648438 -106.766601562 369.889648438 -72.123046875 c 2,67,-1
 369.889648438 -19.6328125 l 2,68,69
 369.889648438 14.8798828125 369.889648438 14.8798828125 385.899414062 33.64453125 c 128,-1,70
 402.040039062 52.541015625 402.040039062 52.541015625 430.25390625 52.541015625 c 0,71,72
 458.9921875 52.541015625 458.9921875 52.541015625 475.526367188 33.64453125 c 128,-1,73
 492.192382812 14.8798828125 492.192382812 14.8798828125 492.192382812 -19.6328125 c 2,74,-1
 492.192382812 -72.123046875 l 2,61,62
465.815429688 -19.2392578125 m 2,75,76
 465.815429688 6.0869140625 465.815429688 6.0869140625 456.760742188 18.81640625 c 128,-1,77
 447.70703125 31.544921875 447.70703125 31.544921875 430.25390625 31.544921875 c 0,78,79
 413.45703125 31.544921875 413.45703125 31.544921875 404.795898438 18.81640625 c 128,-1,80
 396.266601562 6.0869140625 396.266601562 6.0869140625 396.266601562 -19.2392578125 c 2,81,-1
 396.266601562 -72.123046875 l 2,82,83
 396.266601562 -97.8427734375 396.266601562 -97.8427734375 404.795898438 -110.572265625 c 128,-1,84
 413.45703125 -123.30078125 413.45703125 -123.30078125 430.384765625 -123.30078125 c 0,85,86
 447.837890625 -123.30078125 447.837890625 -123.30078125 456.760742188 -110.572265625 c 128,-1,87
 465.815429688 -97.8427734375 465.815429688 -97.8427734375 465.815429688 -72.123046875 c 2,88,-1
 465.815429688 -19.2392578125 l 2,75,76
607.932617188 -93.25 m 0,89,90
 607.932617188 -79.4716796875 607.932617188 -79.4716796875 600.978515625 -71.0732421875 c 128,-1,91
 594.154296875 -62.5439453125 594.154296875 -62.5439453125 576.176757812 -55.8505859375 c 0,92,93
 549.668945312 -47.453125 549.668945312 -47.453125 536.021484375 -34.4609375 c 128,-1,94
 522.374023438 -21.3388671875 522.374023438 -21.3388671875 522.374023438 0.9697265625 c 0,95,96
 522.374023438 24.0654296875 522.374023438 24.0654296875 537.596679688 38.2373046875 c 128,-1,97
 552.818359375 52.541015625 552.818359375 52.541015625 577.750976562 52.541015625 c 0,98,99
 603.471679688 52.541015625 603.471679688 52.541015625 618.825195312 36.0068359375 c 128,-1,100
 634.177734375 19.47265625 634.177734375 19.47265625 634.177734375 -5.3291015625 c 1,101,-1
 607.801757812 -5.3291015625 l 1,102,103
 607.801757812 11.73046875 607.801757812 11.73046875 600.059570312 21.9658203125 c 128,-1,104
 592.317382812 32.201171875 592.317382812 32.201171875 577.489257812 32.201171875 c 0,105,106
 563.447265625 32.201171875 563.447265625 32.201171875 556.098632812 23.5400390625 c 128,-1,107
 548.75 15.0107421875 548.75 15.0107421875 548.75 1.232421875 c 0,108,109
 548.75 -11.234375 548.75 -11.234375 556.624023438 -19.3701171875 c 128,-1,110
 564.62890625 -27.505859375 564.62890625 -27.505859375 583.525390625 -34.4609375 c 0,111,112
 608.982421875 -42.728515625 608.982421875 -42.728515625 621.581054688 -56.5068359375 c 128,-1,113
 634.177734375 -70.154296875 634.177734375 -70.154296875 634.177734375 -92.98828125 c 0,114,115
 634.177734375 -117.001953125 634.177734375 -117.001953125 619.086914062 -130.518554688 c 128,-1,116
 603.99609375 -144.034179688 603.99609375 -144.034179688 578.407226562 -144.034179688 c 0,117,118
 553.474609375 -144.034179688 553.474609375 -144.034179688 535.497070312 -129.075195312 c 128,-1,119
 517.518554688 -113.984375 517.518554688 -113.984375 517.518554688 -85.376953125 c 1,120,-1
 543.89453125 -85.376953125 l 1,121,122
 543.89453125 -105.5859375 543.89453125 -105.5859375 553.211914062 -114.771484375 c 128,-1,123
 562.529296875 -123.95703125 562.529296875 -123.95703125 578.407226562 -123.95703125 c 0,124,125
 592.7109375 -123.95703125 592.7109375 -123.95703125 600.322265625 -115.821289062 c 128,-1,126
 607.932617188 -107.685546875 607.932617188 -107.685546875 607.932617188 -93.25 c 0,89,90
770.127929688 29.314453125 m 1,127,-1
 723.673828125 29.314453125 l 1,128,-1
 723.673828125 -141.279296875 l 1,129,-1
 697.560546875 -141.279296875 l 1,130,-1
 697.560546875 29.314453125 l 1,131,-1
 651.237304688 29.314453125 l 1,132,-1
 651.237304688 49.78515625 l 1,133,-1
 770.127929688 49.78515625 l 1,134,-1
 770.127929688 29.314453125 l 1,127,-1
EndSplineSet
EndChar

StartChar: b
Encoding: 98 98 11
Width: 1000
VWidth: 0
LayerCount: 2
Fore
SplineSet
403.11328125 691.611328125 m 0,1,2
 425.158300619 704.352539062 425.158300619 704.352539062 450.620117188 704.352539062 c 0,3,4
 463.801007351 704.352539062 463.801007351 704.352539062 476.487304688 700.760742188 c 2,5,-1
 775.907226562 620.53125 l 1,6,7
 810.357361046 616.242195073 810.357361046 616.242195073 834.738250836 588.637973888 c 128,-1,8
 859.119140625 561.033752704 859.119140625 561.033752704 859.119140625 526.318359375 c 0,9,10
 859.119140625 507.314289183 859.119140625 507.314289183 851.805664062 489.775390625 c 2,11,-1
 771.447265625 189.875 l 2,12,13
 763.94799778 160.200194255 763.94799778 160.200194255 736.978148735 139.198241659 c 128,-1,14
 710.00829969 118.196289062 710.00829969 118.196289062 679.400390625 118.196289062 c 0,15,16
 653.624095901 118.196289062 653.624095901 118.196289062 631.752134001 130.906369977 c 128,-1,17
 609.880172101 143.616450892 609.880172101 143.616450892 597.170066519 165.488161273 c 128,-1,18
 584.459960938 187.359871654 584.459960938 187.359871654 584.459960938 213.135742188 c 0,19,20
 584.459960938 226.325985405 584.459960938 226.325985405 588.0546875 239.013671875 c 2,21,-1
 612.131835938 328.868164062 l 1,22,-1
 284.44921875 139.680664062 l 2,23,24
 261.979899293 126.282226562 261.979899293 126.282226562 235.821289062 126.282226562 c 0,25,26
 196.515869141 126.282226562 196.515869141 126.282226562 168.698364258 154.099731445 c 128,-1,27
 140.880859375 181.917236328 140.880859375 181.917236328 140.880859375 221.22265625 c 0,28,29
 140.880859375 236.348455821 140.880859375 236.348455821 147.392080658 252.820654316 c 128,-1,30
 153.903301941 269.292852811 153.903301941 269.292852811 165.108244863 283.011051414 c 128,-1,31
 176.313187784 296.729250016 176.313187784 296.729250016 189.518554688 304.106445312 c 2,32,-1
 517.19921875 493.29296875 l 1,33,-1
 427.346679688 517.369140625 l 2,34,35
 407.889475374 522.288558201 407.889475374 522.288558201 391.379107125 536.359571019 c 128,-1,36
 374.868738876 550.430583837 374.868738876 550.430583837 365.274213188 569.886522731 c 128,-1,37
 355.6796875 589.342461625 355.6796875 589.342461625 355.6796875 609.412109375 c 0,38,39
 355.6796875 620.551903668 355.6796875 620.551903668 359.438078239 632.868990308 c 128,-1,40
 363.196468979 645.186076948 363.196468979 645.186076948 369.548677132 656.194074267 c 128,-1,41
 375.900885284 667.202071586 375.900885284 667.202071586 384.6845382 676.619509107 c 128,-1,42
 393.468191116 686.036946627 393.468191116 686.036946627 403.11328125 691.611328125 c 0,1,2
368.372070312 -141.279296875 m 1,43,-1
 341.995117188 -141.279296875 l 1,44,-1
 341.995117188 -57.0322265625 l 1,45,-1
 274.151367188 -57.0322265625 l 1,46,-1
 274.151367188 -141.279296875 l 1,47,-1
 247.775390625 -141.279296875 l 1,48,-1
 247.775390625 49.78515625 l 1,49,-1
 274.151367188 49.78515625 l 1,50,-1
 274.151367188 -36.6923828125 l 1,51,-1
 341.995117188 -36.6923828125 l 1,52,-1
 341.995117188 49.78515625 l 1,53,-1
 368.372070312 49.78515625 l 1,54,-1
 368.372070312 -141.279296875 l 1,43,-1
497.759765625 -52.5703125 m 1,55,-1
 431.09765625 -52.5703125 l 1,56,-1
 431.09765625 -121.0703125 l 1,57,-1
 508.520507812 -121.0703125 l 1,58,-1
 508.520507812 -141.279296875 l 1,59,-1
 404.720703125 -141.279296875 l 1,60,-1
 404.720703125 49.78515625 l 1,61,-1
 507.864257812 49.78515625 l 1,62,-1
 507.864257812 29.314453125 l 1,63,-1
 431.09765625 29.314453125 l 1,64,-1
 431.09765625 -32.23046875 l 1,65,-1
 497.759765625 -32.23046875 l 1,66,-1
 497.759765625 -52.5703125 l 1,55,-1
615.731445312 -92.2001953125 m 1,67,-1
 558.6484375 -92.2001953125 l 1,68,-1
 545.657226562 -141.279296875 l 1,69,-1
 518.887695312 -141.279296875 l 1,70,-1
 574.7890625 49.78515625 l 1,71,-1
 600.247070312 49.78515625 l 1,72,-1
 655.362304688 -141.279296875 l 1,73,-1
 628.72265625 -141.279296875 l 1,74,-1
 615.731445312 -92.2001953125 l 1,67,-1
564.16015625 -71.8603515625 m 1,75,-1
 610.3515625 -71.8603515625 l 1,76,-1
 587.518554688 14.3544921875 l 1,77,-1
 586.993164062 14.3544921875 l 1,78,-1
 564.16015625 -71.8603515625 l 1,75,-1
677.669921875 -141.279296875 m 1,79,-1
 677.669921875 49.78515625 l 1,80,-1
 723.206054688 49.78515625 l 2,81,82
 757.32421875 49.78515625 757.32421875 49.78515625 775.040039062 30.3642578125 c 128,-1,83
 792.754882812 10.9423828125 792.754882812 10.9423828125 792.754882812 -28.818359375 c 2,84,-1
 792.754882812 -62.9375 l 2,85,86
 792.754882812 -102.9609375 792.754882812 -102.9609375 774.908203125 -122.120117188 c 128,-1,87
 757.061523438 -141.279296875 757.061523438 -141.279296875 722.024414062 -141.279296875 c 2,88,-1
 677.669921875 -141.279296875 l 1,79,-1
704.046875 29.314453125 m 1,89,-1
 704.046875 -121.0703125 l 1,90,-1
 721.106445312 -121.0703125 l 2,91,92
 746.0390625 -121.0703125 746.0390625 -121.0703125 756.274414062 -107.291992188 c 128,-1,93
 766.509765625 -93.3818359375 766.509765625 -93.3818359375 766.509765625 -62.9375 c 2,94,-1
 766.509765625 -28.5556640625 l 2,95,96
 766.509765625 2.01953125 766.509765625 2.01953125 756.405273438 15.6669921875 c 128,-1,97
 746.301757812 29.314453125 746.301757812 29.314453125 722.41796875 29.314453125 c 2,98,-1
 704.046875 29.314453125 l 1,89,-1
EndSplineSet
EndChar

StartChar: d
Encoding: 100 100 12
Width: 1000
VWidth: 0
LayerCount: 2
Fore
SplineSet
403.11328125 691.611328125 m 0,1,2
 425.158300619 704.352539062 425.158300619 704.352539062 450.620117188 704.352539062 c 0,3,4
 463.801007351 704.352539062 463.801007351 704.352539062 476.487304688 700.760742188 c 2,5,-1
 775.907226562 620.53125 l 1,6,7
 810.357361046 616.242195073 810.357361046 616.242195073 834.738250836 588.637973888 c 128,-1,8
 859.119140625 561.033752704 859.119140625 561.033752704 859.119140625 526.318359375 c 0,9,10
 859.119140625 507.314289183 859.119140625 507.314289183 851.805664062 489.775390625 c 2,11,-1
 771.447265625 189.875 l 2,12,13
 763.94799778 160.200194255 763.94799778 160.200194255 736.978148735 139.198241659 c 128,-1,14
 710.00829969 118.196289062 710.00829969 118.196289062 679.400390625 118.196289062 c 0,15,16
 653.624095901 118.196289062 653.624095901 118.196289062 631.752134001 130.906369977 c 128,-1,17
 609.880172101 143.616450892 609.880172101 143.616450892 597.170066519 165.488161273 c 128,-1,18
 584.459960938 187.359871654 584.459960938 187.359871654 584.459960938 213.135742188 c 0,19,20
 584.459960938 226.325985405 584.459960938 226.325985405 588.0546875 239.013671875 c 2,21,-1
 612.131835938 328.868164062 l 1,22,-1
 284.44921875 139.680664062 l 2,23,24
 261.979899293 126.282226562 261.979899293 126.282226562 235.821289062 126.282226562 c 0,25,26
 196.515869141 126.282226562 196.515869141 126.282226562 168.698364258 154.099731445 c 128,-1,27
 140.880859375 181.917236328 140.880859375 181.917236328 140.880859375 221.22265625 c 0,28,29
 140.880859375 236.348455821 140.880859375 236.348455821 147.392080658 252.820654316 c 128,-1,30
 153.903301941 269.292852811 153.903301941 269.292852811 165.108244863 283.011051414 c 128,-1,31
 176.313187784 296.729250016 176.313187784 296.729250016 189.518554688 304.106445312 c 2,32,-1
 517.19921875 493.29296875 l 1,33,-1
 427.346679688 517.369140625 l 2,34,35
 407.889475374 522.288558201 407.889475374 522.288558201 391.379107125 536.359571019 c 128,-1,36
 374.868738876 550.430583837 374.868738876 550.430583837 365.274213188 569.886522731 c 128,-1,37
 355.6796875 589.342461625 355.6796875 589.342461625 355.6796875 609.412109375 c 0,38,39
 355.6796875 620.551903668 355.6796875 620.551903668 359.438078239 632.868990308 c 128,-1,40
 363.196468979 645.186076948 363.196468979 645.186076948 369.548677132 656.194074267 c 128,-1,41
 375.900885284 667.202071586 375.900885284 667.202071586 384.6845382 676.619509107 c 128,-1,42
 393.468191116 686.036946627 393.468191116 686.036946627 403.11328125 691.611328125 c 0,1,2
328.16015625 -65.955078125 m 1,43,-1
 328.16015625 -141.279296875 l 1,44,-1
 301.784179688 -141.279296875 l 1,45,-1
 301.784179688 49.78515625 l 1,46,-1
 362.016601562 49.78515625 l 2,47,48
 387.999023438 49.78515625 387.999023438 49.78515625 402.302734375 34.0380859375 c 128,-1,49
 416.606445312 18.4228515625 416.606445312 18.4228515625 416.606445312 -8.0849609375 c 128,-1,50
 416.606445312 -34.7236328125 416.606445312 -34.7236328125 402.302734375 -50.33984375 c 128,-1,51
 388.130859375 -65.955078125 388.130859375 -65.955078125 362.016601562 -65.955078125 c 2,52,-1
 328.16015625 -65.955078125 l 1,43,-1
328.16015625 -45.484375 m 1,53,-1
 362.016601562 -45.484375 l 2,54,55
 376.3203125 -45.484375 376.3203125 -45.484375 383.275390625 -35.1171875 c 128,-1,56
 390.23046875 -24.7509765625 390.23046875 -24.7509765625 390.23046875 -8.34765625 c 128,-1,57
 390.23046875 8.1875 390.23046875 8.1875 383.275390625 18.685546875 c 128,-1,58
 376.3203125 29.314453125 376.3203125 29.314453125 362.016601562 29.314453125 c 2,59,-1
 328.16015625 29.314453125 l 1,60,-1
 328.16015625 -45.484375 l 1,53,-1
558.067382812 49.78515625 m 1,61,-1
 558.067382812 -82.62109375 l 2,62,63
 558.067382812 -112.934570312 558.067382812 -112.934570312 542.057617188 -128.549804688 c 128,-1,64
 526.048828125 -144.034179688 526.048828125 -144.034179688 499.278320312 -144.034179688 c 0,65,66
 472.90234375 -144.034179688 472.90234375 -144.034179688 457.155273438 -128.549804688 c 128,-1,67
 441.5390625 -112.934570312 441.5390625 -112.934570312 441.5390625 -82.62109375 c 2,68,-1
 441.5390625 49.78515625 l 1,69,-1
 467.522460938 49.78515625 l 1,70,-1
 467.522460938 -82.62109375 l 2,71,72
 467.522460938 -103.486328125 467.522460938 -103.486328125 475.919921875 -113.721679688 c 128,-1,73
 484.450195312 -123.826171875 484.450195312 -123.826171875 499.278320312 -123.826171875 c 0,74,75
 514.763671875 -123.826171875 514.763671875 -123.826171875 523.29296875 -114.115234375 c 128,-1,76
 531.822265625 -104.2734375 531.822265625 -104.2734375 531.822265625 -82.62109375 c 2,77,-1
 531.822265625 49.78515625 l 1,78,-1
 558.067382812 49.78515625 l 1,61,-1
698.216796875 29.314453125 m 1,79,-1
 651.762695312 29.314453125 l 1,80,-1
 651.762695312 -141.279296875 l 1,81,-1
 625.6484375 -141.279296875 l 1,82,-1
 625.6484375 29.314453125 l 1,83,-1
 579.326171875 29.314453125 l 1,84,-1
 579.326171875 49.78515625 l 1,85,-1
 698.216796875 49.78515625 l 1,86,-1
 698.216796875 29.314453125 l 1,79,-1
EndSplineSet
EndChar

StartChar: e
Encoding: 101 101 13
Width: 1000
VWidth: 0
Flags: W
LayerCount: 2
Fore
SplineSet
403.11328125 691.611328125 m 0,1,2
 425.158300619 704.352539062 425.158300619 704.352539062 450.620117188 704.352539062 c 0,3,4
 463.801007351 704.352539062 463.801007351 704.352539062 476.487304688 700.760742188 c 2,5,-1
 775.907226562 620.53125 l 1,6,7
 810.357361046 616.242195073 810.357361046 616.242195073 834.738250836 588.637973888 c 128,-1,8
 859.119140625 561.033752704 859.119140625 561.033752704 859.119140625 526.318359375 c 0,9,10
 859.119140625 507.314289183 859.119140625 507.314289183 851.805664062 489.775390625 c 2,11,-1
 771.447265625 189.875 l 2,12,13
 763.94799778 160.200194255 763.94799778 160.200194255 736.978148735 139.198241659 c 128,-1,14
 710.00829969 118.196289062 710.00829969 118.196289062 679.400390625 118.196289062 c 0,15,16
 653.624095901 118.196289062 653.624095901 118.196289062 631.752134001 130.906369977 c 128,-1,17
 609.880172101 143.616450892 609.880172101 143.616450892 597.170066519 165.488161273 c 128,-1,18
 584.459960938 187.359871654 584.459960938 187.359871654 584.459960938 213.135742188 c 0,19,20
 584.459960938 226.325985405 584.459960938 226.325985405 588.0546875 239.013671875 c 2,21,-1
 612.131835938 328.868164062 l 1,22,-1
 284.44921875 139.680664062 l 2,23,24
 261.979899293 126.282226562 261.979899293 126.282226562 235.821289062 126.282226562 c 0,25,26
 196.515869141 126.282226562 196.515869141 126.282226562 168.698364258 154.099731445 c 128,-1,27
 140.880859375 181.917236328 140.880859375 181.917236328 140.880859375 221.22265625 c 0,28,29
 140.880859375 236.348455821 140.880859375 236.348455821 147.392080658 252.820654316 c 128,-1,30
 153.903301941 269.292852811 153.903301941 269.292852811 165.108244863 283.011051414 c 128,-1,31
 176.313187784 296.729250016 176.313187784 296.729250016 189.518554688 304.106445312 c 2,32,-1
 517.19921875 493.29296875 l 1,33,-1
 427.346679688 517.369140625 l 2,34,35
 407.889475374 522.288558201 407.889475374 522.288558201 391.379107125 536.359571019 c 128,-1,36
 374.868738876 550.430583837 374.868738876 550.430583837 365.274213188 569.886522731 c 128,-1,37
 355.6796875 589.342461625 355.6796875 589.342461625 355.6796875 609.412109375 c 0,38,39
 355.6796875 620.551903668 355.6796875 620.551903668 359.438078239 632.868990308 c 128,-1,40
 363.196468979 645.186076948 363.196468979 645.186076948 369.548677132 656.194074267 c 128,-1,41
 375.900885284 667.202071586 375.900885284 667.202071586 384.6845382 676.619509107 c 128,-1,42
 393.468191116 686.036946627 393.468191116 686.036946627 403.11328125 691.611328125 c 0,1,2
117.412109375 -141.279296875 m 1,43,-1
 117.412109375 49.78515625 l 1,44,-1
 162.947265625 49.78515625 l 2,45,46
 197.065429688 49.78515625 197.065429688 49.78515625 214.78125 30.3642578125 c 128,-1,47
 232.497070312 10.9423828125 232.497070312 10.9423828125 232.497070312 -28.818359375 c 2,48,-1
 232.497070312 -62.9375 l 2,49,50
 232.497070312 -102.9609375 232.497070312 -102.9609375 214.650390625 -122.120117188 c 128,-1,51
 196.803710938 -141.279296875 196.803710938 -141.279296875 161.766601562 -141.279296875 c 2,52,-1
 117.412109375 -141.279296875 l 1,43,-1
143.788085938 29.314453125 m 1,53,-1
 143.788085938 -121.0703125 l 1,54,-1
 160.84765625 -121.0703125 l 2,55,56
 185.780273438 -121.0703125 185.780273438 -121.0703125 196.015625 -107.291992188 c 128,-1,57
 206.251953125 -93.3818359375 206.251953125 -93.3818359375 206.251953125 -62.9375 c 2,58,-1
 206.251953125 -28.5556640625 l 2,59,60
 206.251953125 2.01953125 206.251953125 2.01953125 196.147460938 15.6669921875 c 128,-1,61
 186.04296875 29.314453125 186.04296875 29.314453125 162.16015625 29.314453125 c 2,62,-1
 143.788085938 29.314453125 l 1,53,-1
358.473632812 -52.5703125 m 1,63,-1
 291.810546875 -52.5703125 l 1,64,-1
 291.810546875 -121.0703125 l 1,65,-1
 369.234375 -121.0703125 l 1,66,-1
 369.234375 -141.279296875 l 1,67,-1
 265.434570312 -141.279296875 l 1,68,-1
 265.434570312 49.78515625 l 1,69,-1
 368.578125 49.78515625 l 1,70,-1
 368.578125 29.314453125 l 1,71,-1
 291.810546875 29.314453125 l 1,72,-1
 291.810546875 -32.23046875 l 1,73,-1
 358.473632812 -32.23046875 l 1,74,-1
 358.473632812 -52.5703125 l 1,63,-1
419.88671875 -121.0703125 m 1,75,-1
 490.092773438 -121.0703125 l 1,76,-1
 490.092773438 -141.279296875 l 1,77,-1
 393.510742188 -141.279296875 l 1,78,-1
 393.510742188 49.78515625 l 1,79,-1
 419.88671875 49.78515625 l 1,80,-1
 419.88671875 -121.0703125 l 1,75,-1
608.327148438 -52.5703125 m 1,81,-1
 541.6640625 -52.5703125 l 1,82,-1
 541.6640625 -121.0703125 l 1,83,-1
 619.086914062 -121.0703125 l 1,84,-1
 619.086914062 -141.279296875 l 1,85,-1
 515.288085938 -141.279296875 l 1,86,-1
 515.288085938 49.78515625 l 1,87,-1
 618.431640625 49.78515625 l 1,88,-1
 618.431640625 29.314453125 l 1,89,-1
 541.6640625 29.314453125 l 1,90,-1
 541.6640625 -32.23046875 l 1,91,-1
 608.327148438 -32.23046875 l 1,92,-1
 608.327148438 -52.5703125 l 1,81,-1
753.724609375 29.314453125 m 1,93,-1
 707.271484375 29.314453125 l 1,94,-1
 707.271484375 -141.279296875 l 1,95,-1
 681.157226562 -141.279296875 l 1,96,-1
 681.157226562 29.314453125 l 1,97,-1
 634.834960938 29.314453125 l 1,98,-1
 634.834960938 49.78515625 l 1,99,-1
 753.724609375 49.78515625 l 1,100,-1
 753.724609375 29.314453125 l 1,93,-1
871.828125 -52.5703125 m 1,101,-1
 805.165039062 -52.5703125 l 1,102,-1
 805.165039062 -121.0703125 l 1,103,-1
 882.588867188 -121.0703125 l 1,104,-1
 882.588867188 -141.279296875 l 1,105,-1
 778.7890625 -141.279296875 l 1,106,-1
 778.7890625 49.78515625 l 1,107,-1
 881.932617188 49.78515625 l 1,108,-1
 881.932617188 29.314453125 l 1,109,-1
 805.165039062 29.314453125 l 1,110,-1
 805.165039062 -32.23046875 l 1,111,-1
 871.828125 -32.23046875 l 1,112,-1
 871.828125 -52.5703125 l 1,101,-1
EndSplineSet
EndChar

StartChar: f
Encoding: 102 102 14
Width: 1000
VWidth: 0
LayerCount: 2
Fore
SplineSet
403.11328125 691.611328125 m 0,1,2
 425.158300619 704.352539062 425.158300619 704.352539062 450.620117188 704.352539062 c 0,3,4
 463.801007351 704.352539062 463.801007351 704.352539062 476.487304688 700.760742188 c 2,5,-1
 775.907226562 620.53125 l 1,6,7
 810.357361046 616.242195073 810.357361046 616.242195073 834.738250836 588.637973888 c 128,-1,8
 859.119140625 561.033752704 859.119140625 561.033752704 859.119140625 526.318359375 c 0,9,10
 859.119140625 507.314289183 859.119140625 507.314289183 851.805664062 489.775390625 c 2,11,-1
 771.447265625 189.875 l 2,12,13
 763.94799778 160.200194255 763.94799778 160.200194255 736.978148735 139.198241659 c 128,-1,14
 710.00829969 118.196289062 710.00829969 118.196289062 679.400390625 118.196289062 c 0,15,16
 640.094970703 118.196289062 640.094970703 118.196289062 612.27746582 146.013793945 c 128,-1,17
 584.459960938 173.831298828 584.459960938 173.831298828 584.459960938 213.13671875 c 0,18,19
 584.459960938 226.325985405 584.459960938 226.325985405 588.0546875 239.013671875 c 2,20,-1
 612.131835938 328.868164062 l 1,21,-1
 284.44921875 139.681640625 l 2,22,23
 261.981228442 126.282226562 261.981228442 126.282226562 235.821289062 126.282226562 c 0,24,25
 196.515869141 126.282226562 196.515869141 126.282226562 168.698364258 154.099731445 c 128,-1,26
 140.880859375 181.917236328 140.880859375 181.917236328 140.880859375 221.22265625 c 0,27,28
 140.880859375 236.348455821 140.880859375 236.348455821 147.392080658 252.820654316 c 128,-1,29
 153.903301941 269.292852811 153.903301941 269.292852811 165.108244863 283.011051414 c 128,-1,30
 176.313187784 296.729250016 176.313187784 296.729250016 189.518554688 304.106445312 c 2,31,-1
 517.19921875 493.29296875 l 1,32,-1
 427.346679688 517.369140625 l 2,33,34
 412.774336239 521.053865352 412.774336239 521.053865352 399.503267669 530.266752542 c 128,-1,35
 386.232199099 539.479639732 386.232199099 539.479639732 376.63459549 551.805894553 c 128,-1,36
 367.036991881 564.132149375 367.036991881 564.132149375 361.35833969 579.256651223 c 128,-1,37
 355.6796875 594.381153072 355.6796875 594.381153072 355.6796875 609.412109375 c 0,38,39
 355.6796875 620.551903668 355.6796875 620.551903668 359.438078239 632.868990308 c 128,-1,40
 363.196468979 645.186076948 363.196468979 645.186076948 369.548677132 656.194074267 c 128,-1,41
 375.900885284 667.202071586 375.900885284 667.202071586 384.6845382 676.619509107 c 128,-1,42
 393.468191116 686.036946627 393.468191116 686.036946627 403.11328125 691.611328125 c 0,1,2
281.640625 30.5947265625 m 1,43,-1
 235.186523438 30.5947265625 l 1,44,-1
 235.186523438 -139.999023438 l 1,45,-1
 209.073242188 -139.999023438 l 1,46,-1
 209.073242188 30.5947265625 l 1,47,-1
 162.75 30.5947265625 l 1,48,-1
 162.75 51.0654296875 l 1,49,-1
 281.640625 51.0654296875 l 1,50,-1
 281.640625 30.5947265625 l 1,43,-1
333.081054688 -57.720703125 m 1,51,-1
 333.081054688 -139.999023438 l 1,52,-1
 306.705078125 -139.999023438 l 1,53,-1
 306.705078125 50.9345703125 l 1,54,-1
 364.837890625 50.9345703125 l 2,55,56
 391.083007812 50.9345703125 391.083007812 50.9345703125 404.467773438 37.287109375 c 128,-1,57
 417.852539062 23.6396484375 417.852539062 23.6396484375 417.852539062 -3.26171875 c 0,58,59
 417.852539062 -18.7470703125 417.852539062 -18.7470703125 410.897460938 -29.76953125 c 128,-1,60
 403.943359375 -40.6611328125 403.943359375 -40.6611328125 390.8203125 -46.9599609375 c 1,61,62
 404.73046875 -51.9462890625 404.73046875 -51.9462890625 410.50390625 -63.232421875 c 128,-1,63
 416.409179688 -74.517578125 416.409179688 -74.517578125 416.409179688 -92.1015625 c 2,64,-1
 416.409179688 -108.767578125 l 2,65,66
 416.409179688 -117.690429688 416.409179688 -117.690429688 417.984375 -125.0390625 c 128,-1,67
 419.690429688 -132.256835938 419.690429688 -132.256835938 423.7578125 -136.71875 c 1,68,-1
 423.7578125 -139.999023438 l 1,69,-1
 396.725585938 -139.999023438 l 1,70,71
 392.395507812 -135.537109375 392.395507812 -135.537109375 391.213867188 -127.0078125 c 128,-1,72
 390.033203125 -118.346679688 390.033203125 -118.346679688 390.033203125 -108.504882812 c 2,73,-1
 390.033203125 -92.3642578125 l 2,74,75
 390.033203125 -75.9609375 390.033203125 -75.9609375 383.602539062 -66.90625 c 128,-1,76
 377.303710938 -57.720703125 377.303710938 -57.720703125 365.362304688 -57.720703125 c 2,77,-1
 333.081054688 -57.720703125 l 1,51,-1
333.081054688 -37.380859375 m 1,78,-1
 362.344726562 -37.380859375 l 2,79,80
 377.56640625 -37.380859375 377.56640625 -37.380859375 384.521484375 -28.8505859375 c 128,-1,81
 391.4765625 -20.1904296875 391.4765625 -20.1904296875 391.4765625 -3.91796875 c 0,82,83
 391.4765625 12.87890625 391.4765625 12.87890625 384.915039062 21.6708984375 c 128,-1,84
 378.353515625 30.5947265625 378.353515625 30.5947265625 364.05078125 30.5947265625 c 2,85,-1
 333.081054688 30.5947265625 l 1,86,-1
 333.081054688 -37.380859375 l 1,78,-1
535.037109375 -90.9208984375 m 1,87,-1
 477.954101562 -90.9208984375 l 1,88,-1
 464.962890625 -139.999023438 l 1,89,-1
 438.192382812 -139.999023438 l 1,90,-1
 494.094726562 51.0654296875 l 1,91,-1
 519.552734375 51.0654296875 l 1,92,-1
 574.666992188 -139.999023438 l 1,93,-1
 548.028320312 -139.999023438 l 1,94,-1
 535.037109375 -90.9208984375 l 1,87,-1
483.465820312 -70.5810546875 m 1,95,-1
 529.657226562 -70.5810546875 l 1,96,-1
 506.82421875 15.634765625 l 1,97,-1
 506.298828125 15.634765625 l 1,98,-1
 483.465820312 -70.5810546875 l 1,95,-1
706.811523438 -82.916015625 m 1,99,100
 706.287109375 -112.310546875 706.287109375 -112.310546875 691.58984375 -127.532226562 c 128,-1,101
 676.892578125 -142.754882812 676.892578125 -142.754882812 649.859375 -142.754882812 c 0,102,103
 622.43359375 -142.754882812 622.43359375 -142.754882812 607.2109375 -124.3828125 c 128,-1,104
 591.989257812 -105.880859375 591.989257812 -105.880859375 591.989257812 -71.10546875 c 2,105,-1
 591.989257812 -18.0908203125 l 2,106,107
 591.989257812 16.552734375 591.989257812 16.552734375 607.342773438 35.1875 c 128,-1,108
 622.696289062 53.8212890625 622.696289062 53.8212890625 649.859375 53.8212890625 c 0,109,110
 677.416992188 53.8212890625 677.416992188 53.8212890625 691.720703125 38.73046875 c 128,-1,111
 706.024414062 23.7705078125 706.024414062 23.7705078125 706.942382812 -6.673828125 c 1,112,-1
 680.56640625 -6.673828125 l 1,113,114
 680.303710938 14.322265625 680.303710938 14.322265625 673.086914062 23.7705078125 c 128,-1,115
 666 33.349609375 666 33.349609375 649.859375 33.349609375 c 0,116,117
 634.244140625 33.349609375 634.244140625 33.349609375 626.239257812 20.490234375 c 128,-1,118
 618.234375 7.6298828125 618.234375 7.6298828125 618.234375 -17.697265625 c 2,119,-1
 618.234375 -71.10546875 l 2,120,121
 618.234375 -96.826171875 618.234375 -96.826171875 625.9765625 -109.685546875 c 128,-1,122
 633.850585938 -122.545898438 633.850585938 -122.545898438 649.859375 -122.545898438 c 128,-1,123
 665.73828125 -122.545898438 665.73828125 -122.545898438 672.955078125 -113.491210938 c 128,-1,124
 680.172851562 -104.305664062 680.172851562 -104.305664062 680.56640625 -82.916015625 c 1,125,-1
 706.811523438 -82.916015625 l 1,99,100
826.489257812 -51.2900390625 m 1,126,-1
 759.827148438 -51.2900390625 l 1,127,-1
 759.827148438 -119.790039062 l 1,128,-1
 837.25 -119.790039062 l 1,129,-1
 837.25 -139.999023438 l 1,130,-1
 733.450195312 -139.999023438 l 1,131,-1
 733.450195312 51.0654296875 l 1,132,-1
 836.59375 51.0654296875 l 1,133,-1
 836.59375 30.5947265625 l 1,134,-1
 759.827148438 30.5947265625 l 1,135,-1
 759.827148438 -30.9501953125 l 1,136,-1
 826.489257812 -30.9501953125 l 1,137,-1
 826.489257812 -51.2900390625 l 1,126,-1
EndSplineSet
EndChar

StartChar: g
Encoding: 103 103 15
Width: 1000
VWidth: 0
LayerCount: 2
Fore
SplineSet
403.11328125 691.611328125 m 0,1,2
 425.158300619 704.352539062 425.158300619 704.352539062 450.620117188 704.352539062 c 0,3,4
 463.801007351 704.352539062 463.801007351 704.352539062 476.487304688 700.760742188 c 2,5,-1
 775.907226562 620.53125 l 1,6,7
 810.357361046 616.242195073 810.357361046 616.242195073 834.738250836 588.637973888 c 128,-1,8
 859.119140625 561.033752704 859.119140625 561.033752704 859.119140625 526.318359375 c 0,9,10
 859.119140625 507.314289183 859.119140625 507.314289183 851.805664062 489.775390625 c 2,11,-1
 771.447265625 189.875 l 2,12,13
 763.94799778 160.200194255 763.94799778 160.200194255 736.978148735 139.198241659 c 128,-1,14
 710.00829969 118.196289062 710.00829969 118.196289062 679.400390625 118.196289062 c 0,15,16
 640.094970703 118.196289062 640.094970703 118.196289062 612.27746582 146.013793945 c 128,-1,17
 584.459960938 173.831298828 584.459960938 173.831298828 584.459960938 213.13671875 c 0,18,19
 584.459960938 226.325985405 584.459960938 226.325985405 588.0546875 239.013671875 c 2,20,-1
 612.131835938 328.868164062 l 1,21,-1
 284.44921875 139.681640625 l 2,22,23
 261.981228442 126.282226562 261.981228442 126.282226562 235.821289062 126.282226562 c 0,24,25
 196.515869141 126.282226562 196.515869141 126.282226562 168.698364258 154.099731445 c 128,-1,26
 140.880859375 181.917236328 140.880859375 181.917236328 140.880859375 221.22265625 c 0,27,28
 140.880859375 236.348455821 140.880859375 236.348455821 147.392080658 252.820654316 c 128,-1,29
 153.903301941 269.292852811 153.903301941 269.292852811 165.108244863 283.011051414 c 128,-1,30
 176.313187784 296.729250016 176.313187784 296.729250016 189.518554688 304.106445312 c 2,31,-1
 517.19921875 493.29296875 l 1,32,-1
 427.346679688 517.369140625 l 2,33,34
 412.774336239 521.053865352 412.774336239 521.053865352 399.503267669 530.266752542 c 128,-1,35
 386.232199099 539.479639732 386.232199099 539.479639732 376.63459549 551.805894553 c 128,-1,36
 367.036991881 564.132149375 367.036991881 564.132149375 361.35833969 579.256651223 c 128,-1,37
 355.6796875 594.381153072 355.6796875 594.381153072 355.6796875 609.412109375 c 0,38,39
 355.6796875 620.551903668 355.6796875 620.551903668 359.438078239 632.868990308 c 128,-1,40
 363.196468979 645.186076948 363.196468979 645.186076948 369.548677132 656.194074267 c 128,-1,41
 375.900885284 667.202071586 375.900885284 667.202071586 384.6845382 676.619509107 c 128,-1,42
 393.468191116 686.036946627 393.468191116 686.036946627 403.11328125 691.611328125 c 0,1,2
164.981445312 -70.8427734375 m 2,43,44
 164.981445312 -105.486328125 164.981445312 -105.486328125 148.446289062 -124.12109375 c 128,-1,45
 131.912109375 -142.754882812 131.912109375 -142.754882812 103.173828125 -142.754882812 c 0,46,47
 74.8291015625 -142.754882812 74.8291015625 -142.754882812 58.6884765625 -124.12109375 c 128,-1,48
 42.6787109375 -105.486328125 42.6787109375 -105.486328125 42.6787109375 -70.8427734375 c 2,49,-1
 42.6787109375 -18.3525390625 l 2,50,51
 42.6787109375 16.1591796875 42.6787109375 16.1591796875 58.6884765625 34.9248046875 c 128,-1,52
 74.8291015625 53.8212890625 74.8291015625 53.8212890625 103.04296875 53.8212890625 c 0,53,54
 131.78125 53.8212890625 131.78125 53.8212890625 148.315429688 34.9248046875 c 128,-1,55
 164.981445312 16.1591796875 164.981445312 16.1591796875 164.981445312 -18.3525390625 c 2,56,-1
 164.981445312 -70.8427734375 l 2,43,44
138.604492188 -17.958984375 m 2,57,58
 138.604492188 7.3671875 138.604492188 7.3671875 129.549804688 20.095703125 c 128,-1,59
 120.495117188 32.8251953125 120.495117188 32.8251953125 103.04296875 32.8251953125 c 0,60,61
 86.24609375 32.8251953125 86.24609375 32.8251953125 77.5849609375 20.095703125 c 128,-1,62
 69.0556640625 7.3671875 69.0556640625 7.3671875 69.0556640625 -17.958984375 c 2,63,-1
 69.0556640625 -70.8427734375 l 2,64,65
 69.0556640625 -96.5634765625 69.0556640625 -96.5634765625 77.5849609375 -109.291992188 c 128,-1,66
 86.24609375 -122.021484375 86.24609375 -122.021484375 103.173828125 -122.021484375 c 0,67,68
 120.626953125 -122.021484375 120.626953125 -122.021484375 129.549804688 -109.291992188 c 128,-1,69
 138.604492188 -96.5634765625 138.604492188 -96.5634765625 138.604492188 -70.8427734375 c 2,70,-1
 138.604492188 -17.958984375 l 2,57,58
224.557617188 -64.67578125 m 1,71,-1
 224.557617188 -139.999023438 l 1,72,-1
 198.181640625 -139.999023438 l 1,73,-1
 198.181640625 51.0654296875 l 1,74,-1
 258.4140625 51.0654296875 l 2,75,76
 284.396484375 51.0654296875 284.396484375 51.0654296875 298.700195312 35.318359375 c 128,-1,77
 313.00390625 19.7021484375 313.00390625 19.7021484375 313.00390625 -6.8046875 c 128,-1,78
 313.00390625 -33.443359375 313.00390625 -33.443359375 298.700195312 -49.0595703125 c 128,-1,79
 284.52734375 -64.67578125 284.52734375 -64.67578125 258.4140625 -64.67578125 c 2,80,-1
 224.557617188 -64.67578125 l 1,71,-1
224.557617188 -44.2041015625 m 1,81,-1
 258.4140625 -44.2041015625 l 2,82,83
 272.717773438 -44.2041015625 272.717773438 -44.2041015625 279.671875 -33.837890625 c 128,-1,84
 286.626953125 -23.470703125 286.626953125 -23.470703125 286.626953125 -7.0673828125 c 128,-1,85
 286.626953125 9.466796875 286.626953125 9.466796875 279.671875 19.96484375 c 128,-1,86
 272.717773438 30.5947265625 272.717773438 30.5947265625 258.4140625 30.5947265625 c 2,87,-1
 224.557617188 30.5947265625 l 1,88,-1
 224.557617188 -44.2041015625 l 1,81,-1
448.690429688 30.5947265625 m 1,89,-1
 402.237304688 30.5947265625 l 1,90,-1
 402.237304688 -139.999023438 l 1,91,-1
 376.123046875 -139.999023438 l 1,92,-1
 376.123046875 30.5947265625 l 1,93,-1
 329.80078125 30.5947265625 l 1,94,-1
 329.80078125 51.0654296875 l 1,95,-1
 448.690429688 51.0654296875 l 1,96,-1
 448.690429688 30.5947265625 l 1,89,-1
501.706054688 -139.999023438 m 1,97,-1
 475.330078125 -139.999023438 l 1,98,-1
 475.330078125 51.0654296875 l 1,99,-1
 501.706054688 51.0654296875 l 1,100,-1
 501.706054688 -139.999023438 l 1,97,-1
658.389648438 -70.8427734375 m 2,101,102
 658.389648438 -105.486328125 658.389648438 -105.486328125 641.854492188 -124.12109375 c 128,-1,103
 625.3203125 -142.754882812 625.3203125 -142.754882812 596.58203125 -142.754882812 c 0,104,105
 568.237304688 -142.754882812 568.237304688 -142.754882812 552.096679688 -124.12109375 c 128,-1,106
 536.086914062 -105.486328125 536.086914062 -105.486328125 536.086914062 -70.8427734375 c 2,107,-1
 536.086914062 -18.3525390625 l 2,108,109
 536.086914062 16.1591796875 536.086914062 16.1591796875 552.096679688 34.9248046875 c 128,-1,110
 568.237304688 53.8212890625 568.237304688 53.8212890625 596.451171875 53.8212890625 c 0,111,112
 625.189453125 53.8212890625 625.189453125 53.8212890625 641.723632812 34.9248046875 c 128,-1,113
 658.389648438 16.1591796875 658.389648438 16.1591796875 658.389648438 -18.3525390625 c 2,114,-1
 658.389648438 -70.8427734375 l 2,101,102
632.012695312 -17.958984375 m 2,115,116
 632.012695312 7.3671875 632.012695312 7.3671875 622.958007812 20.095703125 c 128,-1,117
 613.903320312 32.8251953125 613.903320312 32.8251953125 596.451171875 32.8251953125 c 0,118,119
 579.654296875 32.8251953125 579.654296875 32.8251953125 570.993164062 20.095703125 c 128,-1,120
 562.463867188 7.3671875 562.463867188 7.3671875 562.463867188 -17.958984375 c 2,121,-1
 562.463867188 -70.8427734375 l 2,122,123
 562.463867188 -96.5634765625 562.463867188 -96.5634765625 570.993164062 -109.291992188 c 128,-1,124
 579.654296875 -122.021484375 579.654296875 -122.021484375 596.58203125 -122.021484375 c 0,125,126
 614.03515625 -122.021484375 614.03515625 -122.021484375 622.958007812 -109.291992188 c 128,-1,127
 632.012695312 -96.5634765625 632.012695312 -96.5634765625 632.012695312 -70.8427734375 c 2,128,-1
 632.012695312 -17.958984375 l 2,115,116
812.185546875 -139.999023438 m 1,129,-1
 785.940429688 -139.999023438 l 1,130,-1
 718.359375 0.9375 l 1,131,-1
 717.965820312 -139.999023438 l 1,132,-1
 691.58984375 -139.999023438 l 1,133,-1
 691.58984375 51.0654296875 l 1,134,-1
 717.965820312 51.0654296875 l 1,135,-1
 785.546875 -89.6083984375 l 1,136,-1
 785.940429688 -89.4775390625 l 1,137,-1
 785.940429688 51.0654296875 l 1,138,-1
 812.185546875 51.0654296875 l 1,139,-1
 812.185546875 -139.999023438 l 1,129,-1
931.076171875 -91.970703125 m 0,140,141
 931.076171875 -78.19140625 931.076171875 -78.19140625 924.12109375 -69.79296875 c 128,-1,142
 917.297851562 -61.263671875 917.297851562 -61.263671875 899.319335938 -54.5712890625 c 0,143,144
 872.811523438 -46.1728515625 872.811523438 -46.1728515625 859.1640625 -33.181640625 c 128,-1,145
 845.516601562 -20.05859375 845.516601562 -20.05859375 845.516601562 2.2490234375 c 0,146,147
 845.516601562 25.3447265625 845.516601562 25.3447265625 860.739257812 39.517578125 c 128,-1,148
 875.9609375 53.8212890625 875.9609375 53.8212890625 900.89453125 53.8212890625 c 0,149,150
 926.614257812 53.8212890625 926.614257812 53.8212890625 941.967773438 37.287109375 c 128,-1,151
 957.321289062 20.751953125 957.321289062 20.751953125 957.321289062 -4.0498046875 c 1,152,-1
 930.944335938 -4.0498046875 l 1,153,154
 930.944335938 13.009765625 930.944335938 13.009765625 923.202148438 23.2451171875 c 128,-1,155
 915.459960938 33.4814453125 915.459960938 33.4814453125 900.631835938 33.4814453125 c 0,156,157
 886.590820312 33.4814453125 886.590820312 33.4814453125 879.2421875 24.8203125 c 128,-1,158
 871.893554688 16.291015625 871.893554688 16.291015625 871.893554688 2.51171875 c 0,159,160
 871.893554688 -9.9541015625 871.893554688 -9.9541015625 879.766601562 -18.0908203125 c 128,-1,161
 887.771484375 -26.2265625 887.771484375 -26.2265625 906.66796875 -33.181640625 c 0,162,163
 932.125976562 -41.4482421875 932.125976562 -41.4482421875 944.723632812 -55.2275390625 c 128,-1,164
 957.321289062 -68.875 957.321289062 -68.875 957.321289062 -91.7080078125 c 0,165,166
 957.321289062 -115.72265625 957.321289062 -115.72265625 942.23046875 -129.23828125 c 128,-1,167
 927.139648438 -142.754882812 927.139648438 -142.754882812 901.55078125 -142.754882812 c 0,168,169
 876.6171875 -142.754882812 876.6171875 -142.754882812 858.639648438 -127.794921875 c 128,-1,170
 840.661132812 -112.704101562 840.661132812 -112.704101562 840.661132812 -84.0966796875 c 1,171,-1
 867.038085938 -84.0966796875 l 1,172,173
 867.038085938 -104.305664062 867.038085938 -104.305664062 876.35546875 -113.491210938 c 128,-1,174
 885.671875 -122.676757812 885.671875 -122.676757812 901.55078125 -122.676757812 c 0,175,176
 915.853515625 -122.676757812 915.853515625 -122.676757812 923.46484375 -114.541015625 c 128,-1,177
 931.076171875 -106.405273438 931.076171875 -106.405273438 931.076171875 -91.970703125 c 0,140,141
EndSplineSet
EndChar

StartChar: h
Encoding: 104 104 16
Width: 1000
VWidth: 0
LayerCount: 2
Fore
SplineSet
403.11328125 691.611328125 m 0,1,2
 425.158300619 704.352539062 425.158300619 704.352539062 450.620117188 704.352539062 c 0,3,4
 463.801007351 704.352539062 463.801007351 704.352539062 476.487304688 700.760742188 c 2,5,-1
 775.907226562 620.53125 l 1,6,7
 810.357361046 616.242195073 810.357361046 616.242195073 834.738250836 588.637973888 c 128,-1,8
 859.119140625 561.033752704 859.119140625 561.033752704 859.119140625 526.318359375 c 0,9,10
 859.119140625 507.314289183 859.119140625 507.314289183 851.805664062 489.775390625 c 2,11,-1
 771.447265625 189.875 l 2,12,13
 763.94799778 160.200194255 763.94799778 160.200194255 736.978148735 139.198241659 c 128,-1,14
 710.00829969 118.196289062 710.00829969 118.196289062 679.400390625 118.196289062 c 0,15,16
 640.094970703 118.196289062 640.094970703 118.196289062 612.27746582 146.013793945 c 128,-1,17
 584.459960938 173.831298828 584.459960938 173.831298828 584.459960938 213.13671875 c 0,18,19
 584.459960938 226.325985405 584.459960938 226.325985405 588.0546875 239.013671875 c 2,20,-1
 612.131835938 328.868164062 l 1,21,-1
 284.44921875 139.681640625 l 2,22,23
 261.981228442 126.282226562 261.981228442 126.282226562 235.821289062 126.282226562 c 0,24,25
 196.515869141 126.282226562 196.515869141 126.282226562 168.698364258 154.099731445 c 128,-1,26
 140.880859375 181.917236328 140.880859375 181.917236328 140.880859375 221.22265625 c 0,27,28
 140.880859375 236.348455821 140.880859375 236.348455821 147.392080658 252.820654316 c 128,-1,29
 153.903301941 269.292852811 153.903301941 269.292852811 165.108244863 283.011051414 c 128,-1,30
 176.313187784 296.729250016 176.313187784 296.729250016 189.518554688 304.106445312 c 2,31,-1
 517.19921875 493.29296875 l 1,32,-1
 427.346679688 517.369140625 l 2,33,34
 412.774336239 521.053865352 412.774336239 521.053865352 399.503267669 530.266752542 c 128,-1,35
 386.232199099 539.479639732 386.232199099 539.479639732 376.63459549 551.805894553 c 128,-1,36
 367.036991881 564.132149375 367.036991881 564.132149375 361.35833969 579.256651223 c 128,-1,37
 355.6796875 594.381153072 355.6796875 594.381153072 355.6796875 609.412109375 c 0,38,39
 355.6796875 620.551903668 355.6796875 620.551903668 359.438078239 632.868990308 c 128,-1,40
 363.196468979 645.186076948 363.196468979 645.186076948 369.548677132 656.194074267 c 128,-1,41
 375.900885284 667.202071586 375.900885284 667.202071586 384.6845382 676.619509107 c 128,-1,42
 393.468191116 686.036946627 393.468191116 686.036946627 403.11328125 691.611328125 c 0,1,2
125.678710938 -82.916015625 m 1,43,44
 125.154296875 -112.310546875 125.154296875 -112.310546875 110.45703125 -127.532226562 c 128,-1,45
 95.759765625 -142.754882812 95.759765625 -142.754882812 68.7275390625 -142.754882812 c 0,46,47
 41.30078125 -142.754882812 41.30078125 -142.754882812 26.0791015625 -124.3828125 c 128,-1,48
 10.8564453125 -105.880859375 10.8564453125 -105.880859375 10.8564453125 -71.10546875 c 2,49,-1
 10.8564453125 -18.0908203125 l 2,50,51
 10.8564453125 16.552734375 10.8564453125 16.552734375 26.2099609375 35.1875 c 128,-1,52
 41.5634765625 53.8212890625 41.5634765625 53.8212890625 68.7275390625 53.8212890625 c 0,53,54
 96.2841796875 53.8212890625 96.2841796875 53.8212890625 110.587890625 38.73046875 c 128,-1,55
 124.891601562 23.7705078125 124.891601562 23.7705078125 125.810546875 -6.673828125 c 1,56,-1
 99.43359375 -6.673828125 l 1,57,58
 99.171875 14.322265625 99.171875 14.322265625 91.9541015625 23.7705078125 c 128,-1,59
 84.8681640625 33.349609375 84.8681640625 33.349609375 68.7275390625 33.349609375 c 0,60,61
 53.111328125 33.349609375 53.111328125 33.349609375 45.1064453125 20.490234375 c 128,-1,62
 37.1015625 7.6298828125 37.1015625 7.6298828125 37.1015625 -17.697265625 c 2,63,-1
 37.1015625 -71.10546875 l 2,64,65
 37.1015625 -96.826171875 37.1015625 -96.826171875 44.84375 -109.685546875 c 128,-1,66
 52.7177734375 -122.545898438 52.7177734375 -122.545898438 68.7275390625 -122.545898438 c 128,-1,67
 84.60546875 -122.545898438 84.60546875 -122.545898438 91.8232421875 -113.491210938 c 128,-1,68
 99.0400390625 -104.305664062 99.0400390625 -104.305664062 99.43359375 -82.916015625 c 1,69,-1
 125.678710938 -82.916015625 l 1,43,44
271.864257812 -70.8427734375 m 2,70,71
 271.864257812 -105.486328125 271.864257812 -105.486328125 255.330078125 -124.12109375 c 128,-1,72
 238.794921875 -142.754882812 238.794921875 -142.754882812 210.056640625 -142.754882812 c 0,73,74
 181.711914062 -142.754882812 181.711914062 -142.754882812 165.571289062 -124.12109375 c 128,-1,75
 149.561523438 -105.486328125 149.561523438 -105.486328125 149.561523438 -70.8427734375 c 2,76,-1
 149.561523438 -18.3525390625 l 2,77,78
 149.561523438 16.1591796875 149.561523438 16.1591796875 165.571289062 34.9248046875 c 128,-1,79
 181.711914062 53.8212890625 181.711914062 53.8212890625 209.92578125 53.8212890625 c 0,80,81
 238.6640625 53.8212890625 238.6640625 53.8212890625 255.198242188 34.9248046875 c 128,-1,82
 271.864257812 16.1591796875 271.864257812 16.1591796875 271.864257812 -18.3525390625 c 2,83,-1
 271.864257812 -70.8427734375 l 2,70,71
245.48828125 -17.958984375 m 2,84,85
 245.48828125 7.3671875 245.48828125 7.3671875 236.43359375 20.095703125 c 128,-1,86
 227.37890625 32.8251953125 227.37890625 32.8251953125 209.92578125 32.8251953125 c 0,87,88
 193.12890625 32.8251953125 193.12890625 32.8251953125 184.467773438 20.095703125 c 128,-1,89
 175.938476562 7.3671875 175.938476562 7.3671875 175.938476562 -17.958984375 c 2,90,-1
 175.938476562 -70.8427734375 l 2,91,92
 175.938476562 -96.5634765625 175.938476562 -96.5634765625 184.467773438 -109.291992188 c 128,-1,93
 193.12890625 -122.021484375 193.12890625 -122.021484375 210.056640625 -122.021484375 c 0,94,95
 227.509765625 -122.021484375 227.509765625 -122.021484375 236.43359375 -109.291992188 c 128,-1,96
 245.48828125 -96.5634765625 245.48828125 -96.5634765625 245.48828125 -70.8427734375 c 2,97,-1
 245.48828125 -17.958984375 l 2,84,85
425.66015625 -139.999023438 m 1,98,-1
 399.415039062 -139.999023438 l 1,99,-1
 331.833984375 0.9375 l 1,100,-1
 331.440429688 0.8056640625 l 1,101,-1
 331.440429688 -139.999023438 l 1,102,-1
 305.064453125 -139.999023438 l 1,103,-1
 305.064453125 51.0654296875 l 1,104,-1
 331.440429688 51.0654296875 l 1,105,-1
 399.021484375 -89.6083984375 l 1,106,-1
 399.415039062 -89.4775390625 l 1,107,-1
 399.415039062 51.0654296875 l 1,108,-1
 425.66015625 51.0654296875 l 1,109,-1
 425.66015625 -139.999023438 l 1,98,-1
582.606445312 -139.999023438 m 1,110,-1
 556.361328125 -139.999023438 l 1,111,-1
 488.780273438 0.9375 l 1,112,-1
 488.38671875 0.8056640625 l 1,113,-1
 488.38671875 -139.999023438 l 1,114,-1
 462.009765625 -139.999023438 l 1,115,-1
 462.009765625 51.0654296875 l 1,116,-1
 488.38671875 51.0654296875 l 1,117,-1
 555.967773438 -89.6083984375 l 1,118,-1
 556.361328125 -89.4775390625 l 1,119,-1
 556.361328125 51.0654296875 l 1,120,-1
 582.606445312 51.0654296875 l 1,121,-1
 582.606445312 -139.999023438 l 1,110,-1
711.995117188 -51.2900390625 m 1,122,-1
 645.33203125 -51.2900390625 l 1,123,-1
 645.33203125 -119.790039062 l 1,124,-1
 722.755859375 -119.790039062 l 1,125,-1
 722.755859375 -139.999023438 l 1,126,-1
 618.956054688 -139.999023438 l 1,127,-1
 618.956054688 51.0654296875 l 1,128,-1
 722.099609375 51.0654296875 l 1,129,-1
 722.099609375 30.5947265625 l 1,130,-1
 645.33203125 30.5947265625 l 1,131,-1
 645.33203125 -30.9501953125 l 1,132,-1
 711.995117188 -30.9501953125 l 1,133,-1
 711.995117188 -51.2900390625 l 1,122,-1
858.442382812 -82.916015625 m 1,134,135
 857.91796875 -112.310546875 857.91796875 -112.310546875 843.220703125 -127.532226562 c 128,-1,136
 828.5234375 -142.754882812 828.5234375 -142.754882812 801.490234375 -142.754882812 c 0,137,138
 774.064453125 -142.754882812 774.064453125 -142.754882812 758.842773438 -124.3828125 c 128,-1,139
 743.620117188 -105.880859375 743.620117188 -105.880859375 743.620117188 -71.10546875 c 2,140,-1
 743.620117188 -18.0908203125 l 2,141,142
 743.620117188 16.552734375 743.620117188 16.552734375 758.973632812 35.1875 c 128,-1,143
 774.327148438 53.8212890625 774.327148438 53.8212890625 801.490234375 53.8212890625 c 0,144,145
 829.047851562 53.8212890625 829.047851562 53.8212890625 843.3515625 38.73046875 c 128,-1,146
 857.655273438 23.7705078125 857.655273438 23.7705078125 858.57421875 -6.673828125 c 1,147,-1
 832.197265625 -6.673828125 l 1,148,149
 831.935546875 14.322265625 831.935546875 14.322265625 824.717773438 23.7705078125 c 128,-1,150
 817.631835938 33.349609375 817.631835938 33.349609375 801.490234375 33.349609375 c 0,151,152
 785.875 33.349609375 785.875 33.349609375 777.870117188 20.490234375 c 128,-1,153
 769.865234375 7.6298828125 769.865234375 7.6298828125 769.865234375 -17.697265625 c 2,154,-1
 769.865234375 -71.10546875 l 2,155,156
 769.865234375 -96.826171875 769.865234375 -96.826171875 777.607421875 -109.685546875 c 128,-1,157
 785.481445312 -122.545898438 785.481445312 -122.545898438 801.490234375 -122.545898438 c 128,-1,158
 817.369140625 -122.545898438 817.369140625 -122.545898438 824.5859375 -113.491210938 c 128,-1,159
 831.803710938 -104.305664062 831.803710938 -104.305664062 832.197265625 -82.916015625 c 1,160,-1
 858.442382812 -82.916015625 l 1,134,135
989.143554688 30.5947265625 m 1,161,-1
 942.689453125 30.5947265625 l 1,162,-1
 942.689453125 -139.999023438 l 1,163,-1
 916.575195312 -139.999023438 l 1,164,-1
 916.575195312 30.5947265625 l 1,165,-1
 870.252929688 30.5947265625 l 1,166,-1
 870.252929688 51.0654296875 l 1,167,-1
 989.143554688 51.0654296875 l 1,168,-1
 989.143554688 30.5947265625 l 1,161,-1
EndSplineSet
EndChar

StartChar: i
Encoding: 105 105 17
Width: 1000
VWidth: 0
LayerCount: 2
Fore
SplineSet
403.11328125 691.611328125 m 0,1,2
 425.158300619 704.352539062 425.158300619 704.352539062 450.620117188 704.352539062 c 0,3,4
 463.801007351 704.352539062 463.801007351 704.352539062 476.487304688 700.760742188 c 2,5,-1
 775.907226562 620.53125 l 1,6,7
 810.357361046 616.242195073 810.357361046 616.242195073 834.738250836 588.637973888 c 128,-1,8
 859.119140625 561.033752704 859.119140625 561.033752704 859.119140625 526.318359375 c 0,9,10
 859.119140625 507.314289183 859.119140625 507.314289183 851.805664062 489.775390625 c 2,11,-1
 771.447265625 189.875 l 2,12,13
 763.94799778 160.200194255 763.94799778 160.200194255 736.978148735 139.198241659 c 128,-1,14
 710.00829969 118.196289062 710.00829969 118.196289062 679.400390625 118.196289062 c 0,15,16
 640.094970703 118.196289062 640.094970703 118.196289062 612.27746582 146.013793945 c 128,-1,17
 584.459960938 173.831298828 584.459960938 173.831298828 584.459960938 213.13671875 c 0,18,19
 584.459960938 226.325985405 584.459960938 226.325985405 588.0546875 239.013671875 c 2,20,-1
 612.131835938 328.868164062 l 1,21,-1
 284.44921875 139.681640625 l 2,22,23
 261.981228442 126.282226562 261.981228442 126.282226562 235.821289062 126.282226562 c 0,24,25
 196.515869141 126.282226562 196.515869141 126.282226562 168.698364258 154.099731445 c 128,-1,26
 140.880859375 181.917236328 140.880859375 181.917236328 140.880859375 221.22265625 c 0,27,28
 140.880859375 236.348455821 140.880859375 236.348455821 147.392080658 252.820654316 c 128,-1,29
 153.903301941 269.292852811 153.903301941 269.292852811 165.108244863 283.011051414 c 128,-1,30
 176.313187784 296.729250016 176.313187784 296.729250016 189.518554688 304.106445312 c 2,31,-1
 517.19921875 493.29296875 l 1,32,-1
 427.346679688 517.369140625 l 2,33,34
 412.774336239 521.053865352 412.774336239 521.053865352 399.503267669 530.266752542 c 128,-1,35
 386.232199099 539.479639732 386.232199099 539.479639732 376.63459549 551.805894553 c 128,-1,36
 367.036991881 564.132149375 367.036991881 564.132149375 361.35833969 579.256651223 c 128,-1,37
 355.6796875 594.381153072 355.6796875 594.381153072 355.6796875 609.412109375 c 0,38,39
 355.6796875 620.551903668 355.6796875 620.551903668 359.438078239 632.868990308 c 128,-1,40
 363.196468979 645.186076948 363.196468979 645.186076948 369.548677132 656.194074267 c 128,-1,41
 375.900885284 667.202071586 375.900885284 667.202071586 384.6845382 676.619509107 c 128,-1,42
 393.468191116 686.036946627 393.468191116 686.036946627 403.11328125 691.611328125 c 0,1,2
205.989257812 -64.67578125 m 1,43,-1
 205.989257812 -139.999023438 l 1,44,-1
 179.61328125 -139.999023438 l 1,45,-1
 179.61328125 51.0654296875 l 1,46,-1
 239.845703125 51.0654296875 l 2,47,48
 265.828125 51.0654296875 265.828125 51.0654296875 280.131835938 35.318359375 c 128,-1,49
 294.435546875 19.7021484375 294.435546875 19.7021484375 294.435546875 -6.8046875 c 128,-1,50
 294.435546875 -33.443359375 294.435546875 -33.443359375 280.131835938 -49.0595703125 c 128,-1,51
 265.958984375 -64.67578125 265.958984375 -64.67578125 239.845703125 -64.67578125 c 2,52,-1
 205.989257812 -64.67578125 l 1,43,-1
205.989257812 -44.2041015625 m 1,53,-1
 239.845703125 -44.2041015625 l 2,54,55
 254.149414062 -44.2041015625 254.149414062 -44.2041015625 261.103515625 -33.837890625 c 128,-1,56
 268.05859375 -23.470703125 268.05859375 -23.470703125 268.05859375 -7.0673828125 c 128,-1,57
 268.05859375 9.466796875 268.05859375 9.466796875 261.103515625 19.96484375 c 128,-1,58
 254.149414063 30.5947265625 254.149414063 30.5947265625 239.845703125 30.5947265625 c 2,59,-1
 205.989257812 30.5947265625 l 1,60,-1
 205.989257812 -44.2041015625 l 1,53,-1
387.474609375 -90.9208984375 m 1,61,-1
 330.390625 -90.9208984375 l 1,62,-1
 317.399414062 -139.999023438 l 1,63,-1
 290.629882812 -139.999023438 l 1,64,-1
 346.532226562 51.0654296875 l 1,65,-1
 371.989257812 51.0654296875 l 1,66,-1
 427.104492188 -139.999023438 l 1,67,-1
 400.465820312 -139.999023438 l 1,68,-1
 387.474609375 -90.9208984375 l 1,61,-1
335.90234375 -70.5810546875 m 1,69,-1
 382.09375 -70.5810546875 l 1,70,-1
 359.260742188 15.634765625 l 1,71,-1
 335.90234375 -70.5810546875 l 1,69,-1
540.352539062 30.5947265625 m 1,72,-1
 493.8984375 30.5947265625 l 1,73,-1
 493.8984375 -139.999023438 l 1,74,-1
 467.784179688 -139.999023438 l 1,75,-1
 467.784179688 30.5947265625 l 1,76,-1
 421.461914062 30.5947265625 l 1,77,-1
 421.461914062 51.0654296875 l 1,78,-1
 540.352539062 51.0654296875 l 1,79,-1
 540.352539062 30.5947265625 l 1,72,-1
673.15234375 -82.916015625 m 1,80,81
 672.626953125 -112.310546875 672.626953125 -112.310546875 657.930664062 -127.532226562 c 128,-1,82
 643.232421875 -142.754882812 643.232421875 -142.754882812 616.200195312 -142.754882812 c 0,83,84
 588.774414062 -142.754882812 588.774414062 -142.754882812 573.551757812 -124.3828125 c 128,-1,85
 558.330078125 -105.880859375 558.330078125 -105.880859375 558.330078125 -71.10546875 c 2,86,-1
 558.330078125 -18.0908203125 l 2,87,88
 558.330078125 16.552734375 558.330078125 16.552734375 573.68359375 35.1875 c 128,-1,89
 589.037109375 53.8212890625 589.037109375 53.8212890625 616.200195312 53.8212890625 c 0,90,91
 643.7578125 53.8212890625 643.7578125 53.8212890625 658.061523438 38.73046875 c 128,-1,92
 672.365234375 23.7705078125 672.365234375 23.7705078125 673.283203125 -6.673828125 c 1,93,-1
 646.907226562 -6.673828125 l 1,94,95
 646.64453125 14.322265625 646.64453125 14.322265625 639.427734375 23.7705078125 c 128,-1,96
 632.340820312 33.349609375 632.340820312 33.349609375 616.200195312 33.349609375 c 0,97,98
 600.584960938 33.349609375 600.584960938 33.349609375 592.580078125 20.490234375 c 128,-1,99
 584.575195312 7.6298828125 584.575195312 7.6298828125 584.575195312 -17.697265625 c 2,100,-1
 584.575195312 -71.10546875 l 2,101,102
 584.575195312 -96.826171875 584.575195312 -96.826171875 592.317382812 -109.685546875 c 128,-1,103
 600.190429688 -122.545898438 600.190429688 -122.545898438 616.200195312 -122.545898438 c 128,-1,104
 632.079101562 -122.545898438 632.079101562 -122.545898438 639.295898438 -113.491210938 c 128,-1,105
 646.513671875 -104.305664062 646.513671875 -104.305664062 646.907226562 -82.916015625 c 1,106,-1
 673.15234375 -82.916015625 l 1,80,81
820.387695312 -139.999023438 m 1,107,-1
 794.010742188 -139.999023438 l 1,108,-1
 794.010742188 -55.751953125 l 1,109,-1
 726.16796875 -55.751953125 l 1,110,-1
 726.16796875 -139.999023438 l 1,111,-1
 699.791015625 -139.999023438 l 1,112,-1
 699.791015625 51.0654296875 l 1,113,-1
 726.16796875 51.0654296875 l 1,114,-1
 726.16796875 -35.412109375 l 1,115,-1
 794.010742188 -35.412109375 l 1,116,-1
 794.010742188 51.0654296875 l 1,117,-1
 820.387695312 51.0654296875 l 1,118,-1
 820.387695312 -139.999023438 l 1,107,-1
EndSplineSet
EndChar

StartChar: j
Encoding: 106 106 18
Width: 1000
VWidth: 0
LayerCount: 2
Fore
SplineSet
675.849609375 118.84765625 m 128,-1,1
 664.335091536 107.323860966 664.335091536 107.323860966 644.656357051 99.1673015767 c 128,-1,2
 624.977622566 91.0107421875 624.977622566 91.0107421875 608.686523438 91.0107421875 c 0,3,4
 607.961263021 91.0107421875 607.961263021 91.0107421875 607.342773438 91.0205078125 c 2,5,-1
 297.360351562 91.0205078125 l 2,6,7
 290.863476563 90.1181640625 290.863476563 90.1181640625 284.3046875 90.1181640625 c 0,8,9
 244.999267578 90.1181640625 244.999267578 90.1181640625 217.181762695 117.935668945 c 128,-1,10
 189.364257812 145.753173828 189.364257812 145.753173828 189.364257812 185.05859375 c 0,11,12
 189.364257812 191.389597147 189.364257812 191.389597147 190.20703125 197.676757812 c 2,13,-1
 190.20703125 508.15625 l 2,14,15
 190.197265625 508.779622396 190.197265625 508.779622396 190.197265625 509.510742188 c 0,16,17
 190.197265625 548.816162109 190.197265625 548.816162109 218.014770508 576.633666992 c 128,-1,18
 245.832275391 604.451171875 245.832275391 604.451171875 285.137695312 604.451171875 c 128,-1,19
 324.443115234 604.451171875 324.443115234 604.451171875 352.260620117 576.633666992 c 128,-1,20
 380.078125 548.816162109 380.078125 548.816162109 380.078125 509.510742188 c 0,21,22
 380.078125 508.904296875 380.078125 508.904296875 380.068359375 508.15625 c 2,23,-1
 380.068359375 415.131835938 l 1,24,-1
 647.619140625 682.68359375 l 2,25,26
 659.195093338 694.591334288 659.195093338 694.591334288 679.141387829 703.018811675 c 128,-1,27
 699.08768232 711.446289062 699.08768232 711.446289062 715.6953125 711.446289062 c 0,28,29
 741.471607224 711.446289062 741.471607224 711.446289062 763.343569124 698.736208148 c 128,-1,30
 785.215531024 686.026127233 785.215531024 686.026127233 797.925636606 664.154416852 c 128,-1,31
 810.635742188 642.282706471 810.635742188 642.282706471 810.635742188 616.506835938 c 0,32,33
 810.635742188 599.899426026 810.635742188 599.899426026 802.207855494 579.953098175 c 128,-1,34
 793.7799688 560.006770324 793.7799688 560.006770324 781.872070312 548.430664062 c 2,35,-1
 514.321289062 280.880859375 l 1,36,-1
 607.34375 280.880859375 l 2,37,38
 608.009960937 280.889648438 608.009960937 280.889648438 608.685546875 280.889648438 c 0,39,40
 634.461841599 280.889648438 634.461841599 280.889648438 656.333803499 268.179567523 c 128,-1,41
 678.205765399 255.469486608 678.205765399 255.469486608 690.915870981 233.597776227 c 128,-1,42
 703.625976562 211.726065846 703.625976562 211.726065846 703.625976562 185.950195312 c 0,43,44
 703.625976562 169.679325851 703.625976562 169.679325851 695.487629374 150.018454372 c 128,-1,0
 687.349282186 130.357582893 687.349282186 130.357582893 675.849609375 118.84765625 c 128,-1,1
436.880859375 -157.5703125 m 1,45,-1
 334.524414062 -157.5703125 l 1,46,-1
 334.524414062 -139.854492188 l 1,47,-1
 384.390625 -70.830078125 l 2,48,49
 396.59375 -52.58984375 396.59375 -52.58984375 401.1875 -41.1728515625 c 128,-1,50
 405.780273438 -29.625 405.780273438 -29.625 405.780273438 -18.33984375 c 0,51,52
 405.780273438 -2.986328125 405.780273438 -2.986328125 400.005859375 6.330078125 c 128,-1,53
 394.232421875 15.7783203125 394.232421875 15.7783203125 383.734375 15.7783203125 c 0,54,55
 370.48046875 15.7783203125 370.48046875 15.7783203125 364.05078125 5.412109375 c 128,-1,56
 357.751953125 -4.8232421875 357.751953125 -4.8232421875 357.751953125 -23.326171875 c 1,57,-1
 331.505859375 -23.326171875 l 1,58,59
 331.505859375 2.525390625 331.505859375 2.525390625 345.28515625 19.322265625 c 128,-1,60
 359.063476562 36.25 359.063476562 36.25 383.734375 36.25 c 0,61,62
 406.567382812 36.25 406.567382812 36.25 419.295898438 21.68359375 c 128,-1,63
 432.15625 7.2490234375 432.15625 7.2490234375 432.15625 -17.552734375 c 0,64,65
 432.15625 -34.349609375 432.15625 -34.349609375 424.4140625 -50.0966796875 c 128,-1,66
 416.671875 -65.7119140625 416.671875 -65.7119140625 401.1875 -85.52734375 c 2,67,-1
 367.461914062 -137.361328125 l 1,68,-1
 436.880859375 -137.361328125 l 1,69,-1
 436.880859375 -157.5703125 l 1,45,-1
503.54296875 -68.3369140625 m 1,70,-1
 524.276367188 -15.583984375 l 1,71,-1
 554.327148438 -15.583984375 l 1,72,-1
 518.765625 -85.658203125 l 1,73,-1
 555.639648438 -157.5703125 l 1,74,-1
 525.719726562 -157.5703125 l 1,75,-1
 503.936523438 -103.111328125 l 1,76,-1
 482.284179688 -157.5703125 l 1,77,-1
 452.365234375 -157.5703125 l 1,78,-1
 489.108398438 -85.658203125 l 1,79,-1
 453.415039062 -15.583984375 l 1,80,-1
 483.203125 -15.583984375 l 1,81,-1
 503.54296875 -68.3369140625 l 1,70,-1
616.397460938 -68.3369140625 m 1,82,-1
 637.130859375 -15.583984375 l 1,83,-1
 667.181640625 -15.583984375 l 1,84,-1
 631.619140625 -85.658203125 l 1,85,-1
 668.494140625 -157.5703125 l 1,86,-1
 638.57421875 -157.5703125 l 1,87,-1
 616.791015625 -103.111328125 l 1,88,-1
 595.138671875 -157.5703125 l 1,89,-1
 565.21875 -157.5703125 l 1,90,-1
 601.961914062 -85.658203125 l 1,91,-1
 566.268554688 -15.583984375 l 1,92,-1
 596.056640625 -15.583984375 l 1,93,-1
 616.397460938 -68.3369140625 l 1,82,-1
EndSplineSet
EndChar

StartChar: k
Encoding: 107 107 19
Width: 1000
VWidth: 0
LayerCount: 2
Fore
SplineSet
675.848632812 118.84765625 m 0,1,2
 664.334114973 107.323860966 664.334114973 107.323860966 644.655380488 99.1673015767 c 128,-1,3
 624.976646004 91.0107421875 624.976646004 91.0107421875 608.685546875 91.0107421875 c 0,4,5
 608.083007812 91.0107421875 608.083007812 91.0107421875 607.342773438 91.0205078125 c 2,6,-1
 297.360351562 91.0205078125 l 2,7,8
 290.868740426 90.119140625 290.868740426 90.119140625 284.3046875 90.119140625 c 0,9,10
 244.999343114 90.119140625 244.999343114 90.119140625 217.181800463 117.93648567 c 128,-1,11
 189.364257812 145.753830715 189.364257812 145.753830715 189.364257812 185.05859375 c 0,12,13
 189.364257812 191.398650867 189.364257812 191.398650867 190.206054688 197.676757812 c 2,14,-1
 190.206054688 508.15625 l 2,15,16
 190.197265625 508.829492187 190.197265625 508.829492187 190.197265625 509.510742188 c 0,17,18
 190.197265625 528.815671079 190.197265625 528.815671079 197.719883971 546.396519521 c 128,-1,19
 205.242502317 563.977367963 205.242502317 563.977367963 217.956690736 576.691630504 c 128,-1,20
 230.670879156 589.405893045 230.670879156 589.405893045 248.251500182 596.92853246 c 128,-1,21
 265.832121208 604.451171875 265.832121208 604.451171875 285.13671875 604.451171875 c 0,22,23
 324.442138672 604.451171875 324.442138672 604.451171875 352.259643555 576.633666992 c 128,-1,24
 380.077148438 548.816162109 380.077148438 548.816162109 380.077148438 509.510742188 c 0,25,26
 380.077148438 508.779622396 380.077148438 508.779622396 380.067382812 508.15625 c 2,27,-1
 380.067382812 415.131835938 l 1,28,-1
 647.619140625 682.68359375 l 2,29,30
 659.194932797 694.592633972 659.194932797 694.592633972 679.141680671 703.020926361 c 128,-1,31
 699.088428545 711.44921875 699.088428545 711.44921875 715.696289062 711.44921875 c 0,32,33
 755.00154038 711.44921875 755.00154038 711.44921875 782.819129565 683.631431959 c 128,-1,34
 810.63671875 655.813645168 810.63671875 655.813645168 810.63671875 616.508789062 c 0,35,36
 810.63671875 599.900543494 810.63671875 599.900543494 802.208672972 579.954109204 c 128,-1,37
 793.780627193 560.007674914 793.780627193 560.007674914 781.872070312 548.431640625 c 2,38,-1
 514.321289062 280.880859375 l 1,39,-1
 607.34375 280.880859375 l 2,40,41
 608.083984375 280.890625 608.083984375 280.890625 608.685546875 280.890625 c 0,42,43
 647.990966797 280.890625 647.990966797 280.890625 675.80847168 253.073120117 c 128,-1,44
 703.625976562 225.255615234 703.625976562 225.255615234 703.625976562 185.950195312 c 0,45,46
 703.625976562 177.958793853 703.625976562 177.958793853 701.425015985 168.478278236 c 128,-1,47
 699.224055407 158.997762619 699.224055407 158.997762619 695.504137458 150.011528893 c 128,-1,48
 691.784219508 141.025295167 691.784219508 141.025295167 686.640500604 132.763068275 c 128,-1,49
 681.4967817 124.500841383 681.4967817 124.500841383 675.848632812 118.84765625 c 0,1,2
364.444335938 -50.2275390625 m 1,50,-1
 382.159179688 -50.2275390625 l 2,51,52
 394.625976562 -50.2275390625 394.625976562 -50.2275390625 400.005859375 -41.56640625 c 128,-1,53
 405.38671875 -32.90625 405.38671875 -32.90625 405.38671875 -17.4208984375 c 0,54,55
 405.38671875 -1.54296875 405.38671875 -1.54296875 399.612304688 7.1181640625 c 128,-1,56
 393.969726562 15.7783203125 393.969726562 15.7783203125 382.421875 15.7783203125 c 0,57,58
 372.055664062 15.7783203125 372.055664062 15.7783203125 365.494140625 6.986328125 c 128,-1,59
 359.063476562 -1.673828125 359.063476562 -1.673828125 359.063476562 -16.37109375 c 1,60,-1
 332.950195312 -16.37109375 l 1,61,62
 332.950195312 6.85546875 332.950195312 6.85546875 346.59765625 21.552734375 c 128,-1,63
 360.245117188 36.25 360.245117188 36.25 382.028320312 36.25 c 0,64,65
 405.124023438 36.25 405.124023438 36.25 418.377929688 22.33984375 c 128,-1,66
 431.762695312 8.5615234375 431.762695312 8.5615234375 431.762695312 -17.68359375 c 0,67,68
 431.762695312 -30.6748046875 431.762695312 -30.6748046875 425.463867188 -42.091796875 c 128,-1,69
 419.296875 -53.376953125 419.296875 -53.376953125 407.354492188 -59.544921875 c 1,70,71
 421.396484375 -65.1875 421.396484375 -65.1875 427.694335938 -76.998046875 c 128,-1,72
 434.125 -88.6767578125 434.125 -88.6767578125 434.125 -104.817382812 c 0,73,74
 434.125 -131.325195312 434.125 -131.325195312 419.690429688 -145.891601562 c 128,-1,75
 405.254882812 -160.326171875 405.254882812 -160.326171875 382.159179688 -160.326171875 c 0,76,77
 360.375976562 -160.326171875 360.375976562 -160.326171875 345.810546875 -146.416015625 c 128,-1,78
 331.375 -132.375 331.375 -132.375 331.375 -106.129882812 c 1,79,-1
 357.620117188 -106.129882812 l 1,80,81
 357.620117188 -121.614257812 357.620117188 -121.614257812 364.3125 -130.931640625 c 128,-1,82
 371.13671875 -140.1171875 371.13671875 -140.1171875 382.552734375 -140.1171875 c 0,83,84
 394.495117188 -140.1171875 394.495117188 -140.1171875 401.055664062 -131.194335938 c 128,-1,85
 407.748046875 -122.270507812 407.748046875 -122.270507812 407.748046875 -105.080078125 c 0,86,87
 407.748046875 -86.7080078125 407.748046875 -86.7080078125 401.581054688 -78.572265625 c 128,-1,88
 395.413085938 -70.3056640625 395.413085938 -70.3056640625 382.159179688 -70.3056640625 c 2,89,-1
 364.444335938 -70.3056640625 l 1,90,-1
 364.444335938 -50.2275390625 l 1,50,-1
503.674804688 -68.3369140625 m 1,91,-1
 524.408203125 -15.583984375 l 1,92,-1
 554.458984375 -15.583984375 l 1,93,-1
 518.896484375 -85.658203125 l 1,94,-1
 555.771484375 -157.5703125 l 1,95,-1
 525.8515625 -157.5703125 l 1,96,-1
 504.068359375 -103.111328125 l 1,97,-1
 482.416015625 -157.5703125 l 1,98,-1
 452.49609375 -157.5703125 l 1,99,-1
 489.239257812 -85.658203125 l 1,100,-1
 453.545898438 -15.583984375 l 1,101,-1
 483.334960938 -15.583984375 l 1,102,-1
 503.674804688 -68.3369140625 l 1,91,-1
616.528320312 -68.3369140625 m 1,103,-1
 637.26171875 -15.583984375 l 1,104,-1
 667.3125 -15.583984375 l 1,105,-1
 631.750976562 -85.658203125 l 1,106,-1
 668.625 -157.5703125 l 1,107,-1
 638.706054688 -157.5703125 l 1,108,-1
 616.921875 -103.111328125 l 1,109,-1
 595.26953125 -157.5703125 l 1,110,-1
 565.350585938 -157.5703125 l 1,111,-1
 602.09375 -85.658203125 l 1,112,-1
 566.400390625 -15.583984375 l 1,113,-1
 596.188476562 -15.583984375 l 1,114,-1
 616.528320312 -68.3369140625 l 1,103,-1
EndSplineSet
EndChar

StartChar: l
Encoding: 108 108 20
Width: 1000
VWidth: 0
LayerCount: 2
Fore
SplineSet
675.848632812 118.84765625 m 0,1,2
 664.334114973 107.323860966 664.334114973 107.323860966 644.655380488 99.1673015767 c 128,-1,3
 624.976646004 91.0107421875 624.976646004 91.0107421875 608.685546875 91.0107421875 c 0,4,5
 608.083007812 91.0107421875 608.083007812 91.0107421875 607.342773438 91.0205078125 c 2,6,-1
 297.360351562 91.0205078125 l 2,7,8
 290.868740426 90.119140625 290.868740426 90.119140625 284.3046875 90.119140625 c 0,9,10
 244.999343114 90.119140625 244.999343114 90.119140625 217.181800463 117.93648567 c 128,-1,11
 189.364257812 145.753830715 189.364257812 145.753830715 189.364257812 185.05859375 c 0,12,13
 189.364257812 191.398650867 189.364257812 191.398650867 190.206054688 197.676757812 c 2,14,-1
 190.206054688 508.15625 l 2,15,16
 190.197265625 508.829492187 190.197265625 508.829492187 190.197265625 509.510742188 c 0,17,18
 190.197265625 528.815671079 190.197265625 528.815671079 197.719883971 546.396519521 c 128,-1,19
 205.242502317 563.977367963 205.242502317 563.977367963 217.956690736 576.691630504 c 128,-1,20
 230.670879156 589.405893045 230.670879156 589.405893045 248.251500182 596.92853246 c 128,-1,21
 265.832121208 604.451171875 265.832121208 604.451171875 285.13671875 604.451171875 c 0,22,23
 324.442138672 604.451171875 324.442138672 604.451171875 352.259643555 576.633666992 c 128,-1,24
 380.077148438 548.816162109 380.077148438 548.816162109 380.077148438 509.510742188 c 0,25,26
 380.077148438 508.779622396 380.077148438 508.779622396 380.067382812 508.15625 c 2,27,-1
 380.067382812 415.131835938 l 1,28,-1
 647.619140625 682.68359375 l 2,29,30
 659.194932797 694.592633972 659.194932797 694.592633972 679.141680671 703.020926361 c 128,-1,31
 699.088428545 711.44921875 699.088428545 711.44921875 715.696289062 711.44921875 c 0,32,33
 755.00154038 711.44921875 755.00154038 711.44921875 782.819129565 683.631431959 c 128,-1,34
 810.63671875 655.813645168 810.63671875 655.813645168 810.63671875 616.508789062 c 0,35,36
 810.63671875 599.900543494 810.63671875 599.900543494 802.208672972 579.954109204 c 128,-1,37
 793.780627193 560.007674914 793.780627193 560.007674914 781.872070312 548.431640625 c 2,38,-1
 514.321289062 280.880859375 l 1,39,-1
 607.34375 280.880859375 l 2,40,41
 608.083984375 280.890625 608.083984375 280.890625 608.685546875 280.890625 c 0,42,43
 647.990966797 280.890625 647.990966797 280.890625 675.80847168 253.073120117 c 128,-1,44
 703.625976562 225.255615234 703.625976562 225.255615234 703.625976562 185.950195312 c 0,45,46
 703.625976562 177.958793853 703.625976562 177.958793853 701.425015985 168.478278236 c 128,-1,47
 699.224055407 158.997762619 699.224055407 158.997762619 695.504137458 150.011528893 c 128,-1,48
 691.784219508 141.025295167 691.784219508 141.025295167 686.640500604 132.763068275 c 128,-1,49
 681.4967817 124.500841383 681.4967817 124.500841383 675.848632812 118.84765625 c 0,1,2
422.7734375 -92.3515625 m 1,50,-1
 441.932617188 -92.3515625 l 1,51,-1
 441.932617188 -112.69140625 l 1,52,-1
 422.7734375 -112.69140625 l 1,53,-1
 422.7734375 -157.5703125 l 1,54,-1
 396.397460938 -157.5703125 l 1,55,-1
 396.397460938 -112.69140625 l 1,56,-1
 331.046875 -112.69140625 l 1,57,-1
 330.259765625 -97.7314453125 l 1,58,-1
 395.741210938 33.494140625 l 1,59,-1
 422.7734375 33.494140625 l 1,60,-1
 422.7734375 -92.3515625 l 1,50,-1
356.111328125 -92.3515625 m 1,61,-1
 396.397460938 -92.3515625 l 1,62,-1
 396.397460938 -5.4794921875 l 1,63,-1
 393.641601562 -10.466796875 l 1,64,-1
 356.111328125 -92.3515625 l 1,61,-1
504.790039062 -68.3369140625 m 1,65,-1
 525.5234375 -15.583984375 l 1,66,-1
 555.57421875 -15.583984375 l 1,67,-1
 520.01171875 -85.658203125 l 1,68,-1
 556.88671875 -157.5703125 l 1,69,-1
 526.966796875 -157.5703125 l 1,70,-1
 505.18359375 -103.111328125 l 1,71,-1
 483.53125 -157.5703125 l 1,72,-1
 453.612304688 -157.5703125 l 1,73,-1
 490.35546875 -85.658203125 l 1,74,-1
 454.662109375 -15.583984375 l 1,75,-1
 484.450195312 -15.583984375 l 1,76,-1
 504.790039062 -68.3369140625 l 1,65,-1
617.643554688 -68.3369140625 m 1,77,-1
 638.377929688 -15.583984375 l 1,78,-1
 668.427734375 -15.583984375 l 1,79,-1
 632.866210938 -85.658203125 l 1,80,-1
 669.740234375 -157.5703125 l 1,81,-1
 639.821289062 -157.5703125 l 1,82,-1
 618.038085938 -103.111328125 l 1,83,-1
 596.385742188 -157.5703125 l 1,84,-1
 566.465820312 -157.5703125 l 1,85,-1
 603.208984375 -85.658203125 l 1,86,-1
 567.515625 -15.583984375 l 1,87,-1
 597.303710938 -15.583984375 l 1,88,-1
 617.643554688 -68.3369140625 l 1,77,-1
EndSplineSet
EndChar

StartChar: m
Encoding: 109 109 21
Width: 1000
VWidth: 0
LayerCount: 2
Fore
SplineSet
675.848632812 118.84765625 m 0,0,1
 664.334114973 107.323860966 664.334114973 107.323860966 644.655380488 99.1673015767 c 128,-1,2
 624.976646004 91.0107421875 624.976646004 91.0107421875 608.685546875 91.0107421875 c 0,3,4
 608.083007812 91.0107421875 608.083007812 91.0107421875 607.342773438 91.0205078125 c 2,5,-1
 297.360351562 91.0205078125 l 2,6,7
 290.868740426 90.119140625 290.868740426 90.119140625 284.3046875 90.119140625 c 0,8,9
 244.999343114 90.119140625 244.999343114 90.119140625 217.181800463 117.93648567 c 128,-1,10
 189.364257812 145.753830715 189.364257812 145.753830715 189.364257812 185.05859375 c 0,11,12
 189.364257812 191.398650867 189.364257812 191.398650867 190.206054688 197.676757812 c 2,13,-1
 190.206054688 508.15625 l 2,14,15
 190.197265625 508.829492187 190.197265625 508.829492187 190.197265625 509.510742188 c 0,16,17
 190.197265625 528.815671079 190.197265625 528.815671079 197.719883971 546.396519521 c 128,-1,18
 205.242502317 563.977367963 205.242502317 563.977367963 217.956690736 576.691630504 c 128,-1,19
 230.670879156 589.405893045 230.670879156 589.405893045 248.251500182 596.92853246 c 128,-1,20
 265.832121208 604.451171875 265.832121208 604.451171875 285.13671875 604.451171875 c 0,21,22
 324.442138672 604.451171875 324.442138672 604.451171875 352.259643555 576.633666992 c 128,-1,23
 380.077148438 548.816162109 380.077148438 548.816162109 380.077148438 509.510742188 c 0,24,25
 380.077148438 508.779622396 380.077148438 508.779622396 380.067382812 508.15625 c 2,26,-1
 380.067382812 415.131835938 l 1,27,-1
 647.619140625 682.68359375 l 2,28,29
 659.194932797 694.592633972 659.194932797 694.592633972 679.141680671 703.020926361 c 128,-1,30
 699.088428545 711.44921875 699.088428545 711.44921875 715.696289062 711.44921875 c 0,31,32
 755.00154038 711.44921875 755.00154038 711.44921875 782.819129565 683.631431959 c 128,-1,33
 810.63671875 655.813645168 810.63671875 655.813645168 810.63671875 616.508789062 c 0,34,35
 810.63671875 599.900543494 810.63671875 599.900543494 802.208672972 579.954109204 c 128,-1,36
 793.780627193 560.007674914 793.780627193 560.007674914 781.872070312 548.431640625 c 2,37,-1
 514.321289062 280.880859375 l 1,38,-1
 607.34375 280.880859375 l 2,39,40
 608.083984375 280.890625 608.083984375 280.890625 608.685546875 280.890625 c 0,41,42
 647.990966797 280.890625 647.990966797 280.890625 675.80847168 253.073120117 c 128,-1,43
 703.625976562 225.255615234 703.625976562 225.255615234 703.625976562 185.950195312 c 0,44,45
 703.625976562 177.958793853 703.625976562 177.958793853 701.425015985 168.478278236 c 128,-1,46
 699.224055407 158.997762619 699.224055407 158.997762619 695.504137458 150.011528893 c 128,-1,47
 691.784219508 141.025295167 691.784219508 141.025295167 686.640500604 132.763068275 c 128,-1,48
 681.4967817 124.500841383 681.4967817 124.500841383 675.848632812 118.84765625 c 0,0,1
336.952148438 -71.7490234375 m 1,49,-1
 345.744140625 33.494140625 l 1,50,-1
 427.498046875 33.494140625 l 1,51,-1
 427.498046875 11.5791015625 l 1,52,-1
 367.52734375 11.5791015625 l 1,53,-1
 362.934570312 -44.4541015625 l 1,54,-1
 363.328125 -44.5849609375 l 1,55,56
 367.52734375 -39.861328125 367.52734375 -39.861328125 373.432617188 -36.8427734375 c 128,-1,57
 379.337890625 -33.693359375 379.337890625 -33.693359375 386.94921875 -33.4306640625 c 0,58,59
 408.995117188 -33.037109375 408.995117188 -33.037109375 420.936523438 -49.833984375 c 128,-1,60
 433.009765625 -66.630859375 433.009765625 -66.630859375 433.009765625 -96.55078125 c 0,61,62
 433.009765625 -125.55078125 433.009765625 -125.55078125 420.280273438 -143.00390625 c 128,-1,63
 407.682617188 -160.326171875 407.682617188 -160.326171875 382.619140625 -160.326171875 c 0,64,65
 361.623046875 -160.326171875 361.623046875 -160.326171875 347.712890625 -146.94140625 c 128,-1,66
 333.93359375 -133.424804688 333.93359375 -133.424804688 333.93359375 -106.786132812 c 1,67,-1
 359.522460938 -106.260742188 l 1,68,69
 359.522460938 -122.795898438 359.522460938 -122.795898438 365.822265625 -131.456054688 c 128,-1,70
 372.120117188 -140.1171875 372.120117188 -140.1171875 382.619140625 -140.1171875 c 0,71,72
 394.822265625 -140.1171875 394.822265625 -140.1171875 400.727539062 -128.83203125 c 128,-1,73
 406.764648438 -117.546875 406.764648438 -117.546875 406.764648438 -96.8125 c 0,74,75
 406.764648438 -77.259765625 406.764648438 -77.259765625 400.596679688 -65.84375 c 128,-1,76
 394.428710938 -54.4267578125 394.428710938 -54.4267578125 382.356445312 -54.4267578125 c 0,77,78
 371.595703125 -54.4267578125 371.595703125 -54.4267578125 366.740234375 -59.2822265625 c 128,-1,79
 361.884765625 -64.0068359375 361.884765625 -64.0068359375 359.654296875 -73.9794921875 c 1,80,-1
 336.952148438 -71.7490234375 l 1,49,-1
501.115234375 -68.3369140625 m 1,81,-1
 521.848632812 -15.583984375 l 1,82,-1
 551.899414062 -15.583984375 l 1,83,-1
 516.337890625 -85.658203125 l 1,84,-1
 553.211914062 -157.5703125 l 1,85,-1
 523.29296875 -157.5703125 l 1,86,-1
 501.508789062 -103.111328125 l 1,87,-1
 479.856445312 -157.5703125 l 1,88,-1
 449.9375 -157.5703125 l 1,89,-1
 486.680664062 -85.658203125 l 1,90,-1
 450.987304688 -15.583984375 l 1,91,-1
 480.775390625 -15.583984375 l 1,92,-1
 501.115234375 -68.3369140625 l 1,81,-1
613.969726562 -68.3369140625 m 1,93,-1
 634.703125 -15.583984375 l 1,94,-1
 664.75390625 -15.583984375 l 1,95,-1
 629.19140625 -85.658203125 l 1,96,-1
 666.065429688 -157.5703125 l 1,97,-1
 636.146484375 -157.5703125 l 1,98,-1
 614.36328125 -103.111328125 l 1,99,-1
 592.7109375 -157.5703125 l 1,100,-1
 562.791015625 -157.5703125 l 1,101,-1
 599.534179688 -85.658203125 l 1,102,-1
 563.840820312 -15.583984375 l 1,103,-1
 593.629882812 -15.583984375 l 1,104,-1
 613.969726562 -68.3369140625 l 1,93,-1
EndSplineSet
EndChar

StartChar: G
Encoding: 71 71 22
Width: 1000
VWidth: 0
LayerCount: 2
Fore
SplineSet
563.1484375 609.37890625 m 0,1,2
 628.495548456 609.283277122 628.495548456 609.283277122 703.58203125 574.12890625 c 0,3,4
 738.185378086 557.92827691 738.185378086 557.92827691 765.188642839 538.134209778 c 128,-1,5
 792.191907592 518.340142646 792.191907592 518.340142646 808.594367384 498.562163679 c 128,-1,6
 824.996827177 478.784184711 824.996827177 478.784184711 836.302186649 457.807783381 c 128,-1,7
 847.607546122 436.83138205 847.607546122 436.83138205 851.830242727 417.52194645 c 128,-1,8
 856.052939333 398.212510851 856.052939333 398.212510851 857.613840027 380.149277508 c 128,-1,9
 859.174740722 362.086044165 859.174740722 362.086044165 857.171120642 347.340654119 c 128,-1,10
 855.167500563 332.595264074 855.167500563 332.595264074 852.937388981 321.540700905 c 128,-1,11
 850.7072774 310.486137736 850.7072774 310.486137736 848.430787138 304.40029543 c 2,12,-1
 846.154296875 298.314453125 l 2,13,14
 849.369660722 298.30816886 849.369660722 298.30816886 854.906931571 297.977583849 c 128,-1,15
 860.44420242 297.646998838 860.44420242 297.646998838 876.423750144 294.614776756 c 128,-1,16
 892.403297867 291.582554674 892.403297867 291.582554674 906.936382191 286.316066675 c 128,-1,17
 921.469466514 281.049578676 921.469466514 281.049578676 939.217914684 269.497350098 c 128,-1,18
 956.966362855 257.94512152 956.966362855 257.94512152 969.730546731 242.360271076 c 128,-1,19
 982.494730608 226.775420631 982.494730608 226.775420631 991.247365304 201.3207261 c 128,-1,20
 1000 175.866031569 1000 175.866031569 1000 144.46875 c 128,-1,21
 1000 113.071269133 1000 113.071269133 991.515312291 87.6168828581 c 128,-1,22
 983.030624582 62.1624965835 983.030624582 62.1624965835 969.462599744 46.57589001 c 128,-1,23
 955.894574906 30.9892834366 955.894574906 30.9892834366 939.485861672 19.4394958318 c 128,-1,24
 923.077148438 7.88970822704 923.077148438 7.88970822704 906.668435203 2.61941679574 c 128,-1,25
 890.259721969 -2.65087463557 890.259721969 -2.65087463557 876.691697131 -5.67848886206 c 128,-1,26
 863.123672293 -8.70610308856 863.123672293 -8.70610308856 854.638984584 -9.04250466928 c 2,27,-1
 846.154296875 -9.37890625 l 1,28,-1
 192.306640625 -9.37890625 l 2,29,30
 188.287446021 -9.37100502616 188.287446021 -9.37100502616 181.365875034 -8.95769625142 c 128,-1,31
 174.444304047 -8.54438747668 174.444304047 -8.54438747668 154.46992011 -4.75389608641 c 128,-1,32
 134.495536172 -0.963404696135 134.495536172 -0.963404696135 116.329226893 5.61988779559 c 128,-1,33
 98.1629176143 12.2031802873 98.1629176143 12.2031802873 75.977413732 26.6436645003 c 128,-1,34
 53.7919098497 41.0841487133 53.7919098497 41.0841487133 37.8367205154 60.5653198747 c 128,-1,35
 21.8815311812 80.046491036 21.8815311812 80.046491036 10.9407655906 111.864863024 c 128,-1,36
 0 143.683235013 0 143.683235013 0 182.9296875 c 128,-1,37
 0 222.176139987 0 222.176139987 10.605832707 253.99385354 c 128,-1,38
 21.2116654139 285.811567093 21.2116654139 285.811567093 38.1716533991 305.294713561 c 128,-1,39
 55.1316413842 324.777860028 55.1316413842 324.777860028 75.6424808484 339.215052064 c 128,-1,40
 96.1533203125 353.652244101 96.1533203125 353.652244101 116.664159777 360.24014564 c 128,-1,41
 137.174999241 366.828047179 137.174999241 366.828047179 154.134987226 370.612612651 c 128,-1,42
 171.094975211 374.397178123 171.094975211 374.397178123 181.700807918 374.817729687 c 2,43,-1
 192.306640625 375.23828125 l 2,44,45
 191.478506287 378.01044385 191.478506287 378.01044385 190.526637505 382.934998841 c 128,-1,46
 189.574768722 387.859553832 189.574768722 387.859553832 189.97556562 402.620141784 c 128,-1,47
 190.376362519 417.380729737 190.376362519 417.380729737 194.520137505 431.603373841 c 128,-1,48
 198.663912491 445.826017944 198.663912491 445.826017944 211.45812812 464.693829284 c 128,-1,49
 224.25234375 483.561640625 224.25234375 483.561640625 244.65625 499.201171875 c 0,50,51
 265.771640625 515.3859375 265.771640625 515.3859375 288.264265625 523.003511719 c 128,-1,52
 310.756890625 530.621085937 310.756890625 530.621085937 327.77559375 529.932222656 c 128,-1,53
 344.794296875 529.243359375 344.794296875 529.243359375 358.796515625 526.242386719 c 128,-1,54
 372.798734375 523.241414062 372.798734375 523.241414062 380.2089375 519.298441406 c 2,55,-1
 387.619140625 515.35546875 l 1,56,57
 389.755637061 519.18366884 389.755637061 519.18366884 394.015680219 525.535932238 c 128,-1,58
 398.275723376 531.888195635 398.275723376 531.888195635 413.956585406 548.119067762 c 128,-1,59
 429.637447437 564.349939889 429.637447437 564.349939889 448.109664594 576.745385363 c 128,-1,60
 466.58188175 589.140830837 466.58188175 589.140830837 497.617679156 599.285161512 c 128,-1,61
 528.653476563 609.429492188 528.653476563 609.429492188 563.1484375 609.37890625 c 0,1,2
452.38671875 421.299804688 m 0,62,63
 404.46464191 421.12870441 404.46464191 421.12870441 370.642578125 387.306640625 c 0,64,65
 345.763641819 362.427704319 345.763641819 362.427704319 338.887084961 327.858276367 c 128,-1,66
 332.010528103 293.288848416 332.010528103 293.288848416 345.474609375 260.783203125 c 128,-1,67
 358.938766097 228.277478299 358.938766097 228.277478299 388.246541967 208.694403212 c 128,-1,68
 417.554317838 189.111328125 417.554317838 189.111328125 452.73828125 189.111328125 c 0,69,70
 456.039269454 189.074282823 456.039269454 189.074282823 459.053430082 190.334047172 c 128,-1,71
 462.067590709 191.593811522 462.067590709 191.593811522 464.250006198 193.751829293 c 128,-1,72
 466.432421687 195.909847063 466.432421687 195.909847063 467.725976468 198.909730766 c 128,-1,73
 469.01953125 201.909614469 469.01953125 201.909614469 469.01953125 205.2109375 c 0,74,75
 469.01953125 211.933224599 469.01953125 211.933224599 464.239930675 216.660215153 c 128,-1,76
 459.460330101 221.387205707 459.460330101 221.387205707 452.73828125 221.3125 c 0,77,78
 427.252773409 221.3125 427.252773409 221.3125 406.115126334 235.436107346 c 128,-1,79
 384.977479259 249.559714693 384.977479259 249.559714693 375.224609375 273.10546875 c 128,-1,80
 365.471639418 296.650594496 365.471639418 296.650594496 370.431274414 321.584228516 c 128,-1,81
 375.39090941 346.517862535 375.39090941 346.517862535 393.412109375 364.5390625 c 128,-1,82
 411.432530505 382.55948363 411.432530505 382.55948363 436.366210938 387.518554688 c 128,-1,83
 461.29989137 392.477625745 461.29989137 392.477625745 484.845703125 382.724609375 c 0,84,85
 515.846503483 369.883441915 515.846503483 369.883441915 529.435546875 339.240234375 c 1,86,-1
 506.720703125 353.109375 l 2,87,88
 501.034090981 356.709084337 501.034090981 356.709084337 494.477661133 355.19128418 c 128,-1,89
 487.921231285 353.673484022 487.921231285 353.673484022 484.39453125 347.94140625 c 128,-1,90
 480.867825816 342.208796474 480.867825816 342.208796474 482.469116211 335.672485352 c 128,-1,91
 484.070406606 329.136174229 484.070406606 329.136174229 489.84765625 325.68359375 c 0,92,93
 495.21062786 322.388004743 495.21062786 322.388004743 505.38811768 315.736277877 c 128,-1,94
 515.5656075 309.084551011 515.5656075 309.084551011 521.96217834 305.062458695 c 128,-1,95
 528.35874918 301.04036638 528.35874918 301.04036638 537.547449956 296.367320357 c 128,-1,96
 546.736150731 291.694274335 546.736150731 291.694274335 554.912109375 289.01953125 c 0,97,-1
 555.810546875 288.999023438 l 2,98,99
 561.211367879 288.999023438 561.211367879 288.999023438 565.564453125 292.258789062 c 0,100,101
 566.993501718 293.328918228 566.993501718 293.328918228 568.19140625 294.706054688 c 0,102,103
 569.121308915 295.775090516 569.121308915 295.775090516 569.984375 297.125976562 c 128,-1,104
 570.786991992 298.383855177 570.786991992 298.383855177 571.77734375 300.280273438 c 0,105,106
 573.185535083 302.979202701 573.185535083 302.979202701 575.466796875 307.893554688 c 0,107,108
 579.117550112 315.760870047 579.117550112 315.760870047 585.009765625 329.303710938 c 2,109,-1
 598.1875 360.112304688 l 2,110,111
 601.710480433 368.17194641 601.710480433 368.17194641 596.832740318 375.491245981 c 128,-1,112
 591.955000203 382.810545551 591.955000203 382.810545551 583.16015625 382.661132812 c 0,113,114
 572.499376226 382.479103779 572.499376226 382.479103779 568.505859375 372.592773438 c 128,-1,115
 564.367114737 362.768142999 564.367114737 362.768142999 559.359375 351.125976562 c 1,116,117
 540.673253673 394.452915012 540.673253673 394.452915012 497.16796875 412.473632812 c 0,118,119
 477.055752109 420.804780307 477.055752109 420.804780307 455.298828125 421.272460938 c 0,120,121
 453.698414522 421.299804688 453.698414522 421.299804688 452.38671875 421.299804688 c 0,62,63
472.248046875 263.282226562 m 1,122,-1
 472.248046875 256.002929688 l 1,123,124
 482.849473765 256.002929688 482.849473765 256.002929688 493.767578125 241.446289062 c 2,125,-1
 547.25 157.266601562 l 1,126,-1
 483.326171875 72.1376953125 l 2,127,128
 478.373543576 66.1240234375 478.373543576 66.1240234375 471.931640625 66.1240234375 c 1,129,-1
 471.931640625 59.1630859375 l 1,130,-1
 631.6171875 59.1630859375 l 1,131,-1
 640.478515625 114.543945312 l 1,132,-1
 628.42578125 115.516601562 l 2,133,134
 628.416861533 115.471975446 628.416861533 115.471975446 628.241766634 113.768145025 c 128,-1,135
 628.066671736 112.064314604 628.066671736 112.064314604 627.803857145 110.059943736 c 128,-1,136
 627.541042554 108.055572868 627.541042554 108.055572868 626.804815951 105.178060949 c 128,-1,137
 626.068589347 102.30054903 626.068589347 102.30054903 625.064111051 99.6383586526 c 128,-1,138
 624.059632756 96.976168275 624.059632756 96.976168275 622.266058626 94.2449135184 c 128,-1,139
 620.472484497 91.5136587619 620.472484497 91.5136587619 618.230126676 89.5135875344 c 128,-1,140
 615.987768856 87.5135163069 615.987768856 87.5135163069 612.64063138 86.2484573722 c 128,-1,141
 609.293493905 84.9833984375 609.293493905 84.9833984375 605.30859375 84.9833984375 c 2,142,-1
 516.69921875 84.9833984375 l 1,143,-1
 577.185546875 163.594726562 l 1,144,-1
 577.501953125 163.911132812 l 1,145,-1
 523.0703125 244.221679688 l 1,146,-1
 595.224609375 244.221679688 l 2,147,148
 612.078100257 244.221679688 612.078100257 244.221679688 618.88671875 218.344726562 c 1,149,-1
 631.6171875 219.293945312 l 1,150,-1
 627.1875 263.282226562 l 1,151,-1
 472.248046875 263.282226562 l 1,122,-1
EndSplineSet
EndChar

StartChar: n
Encoding: 110 110 23
Width: 1000
VWidth: 0
LayerCount: 2
Fore
SplineSet
370.676757812 -84.4580078125 m 1,0,-1
 391.411132812 49.78515625 l 1,1,-1
 416.868164062 49.78515625 l 1,2,-1
 384.32421875 -141.278320312 l 1,3,-1
 360.704101562 -141.278320312 l 1,4,-1
 332.622070312 -7.2978515625 l 1,5,-1
 332.228515625 -7.2978515625 l 1,6,-1
 304.145507812 -141.278320312 l 1,7,-1
 280.525390625 -141.278320312 l 1,8,-1
 247.981445312 49.78515625 l 1,9,-1
 273.439453125 49.78515625 l 1,10,-1
 294.041015625 -84.8515625 l 1,11,-1
 322.254882812 49.78515625 l 1,12,-1
 342.594726562 49.78515625 l 1,13,-1
 370.676757812 -84.4580078125 l 1,0,-1
520.930664062 -92.2001953125 m 1,14,-1
 463.84765625 -92.2001953125 l 1,15,-1
 450.856445312 -141.278320312 l 1,16,-1
 424.0859375 -141.278320312 l 1,17,-1
 479.98828125 49.78515625 l 1,18,-1
 505.446289062 49.78515625 l 1,19,-1
 560.560546875 -141.278320312 l 1,20,-1
 533.921875 -141.278320312 l 1,21,-1
 520.930664062 -92.2001953125 l 1,14,-1
469.358398438 -71.8603515625 m 1,22,-1
 515.549804688 -71.8603515625 l 1,23,-1
 492.716796875 14.3544921875 l 1,24,-1
 492.192382812 14.3544921875 l 1,25,-1
 469.358398438 -71.8603515625 l 1,22,-1
610.8203125 -141.278320312 m 1,26,-1
 584.443359375 -141.278320312 l 1,27,-1
 584.443359375 49.78515625 l 1,28,-1
 610.8203125 49.78515625 l 1,29,-1
 610.8203125 -141.278320312 l 1,26,-1
752.018554688 29.314453125 m 1,30,-1
 705.564453125 29.314453125 l 1,31,-1
 705.564453125 -141.278320312 l 1,32,-1
 679.451171875 -141.278320312 l 1,33,-1
 679.451171875 29.314453125 l 1,34,-1
 633.127929688 29.314453125 l 1,35,-1
 633.127929688 49.78515625 l 1,36,-1
 752.018554688 49.78515625 l 1,37,-1
 752.018554688 29.314453125 l 1,30,-1
500 708.7421875 m 0,38,39
 557.392160125 708.7421875 557.392160125 708.7421875 609.658835363 686.377747399 c 128,-1,40
 661.9255106 664.013307298 661.9255106 664.013307298 699.724312831 626.214430946 c 128,-1,41
 737.523115061 588.415554593 737.523115061 588.415554593 759.887534093 536.14865194 c 128,-1,42
 782.251953125 483.881749287 782.251953125 483.881749287 782.251953125 426.489257812 c 128,-1,43
 782.251953125 369.096159905 782.251953125 369.096159905 759.887538188 316.8295886 c 128,-1,44
 737.523123252 264.563017295 737.523123252 264.563017295 699.724308735 226.764329247 c 128,-1,45
 661.925494219 188.965641199 661.925494219 188.965641199 609.658839458 166.601164527 c 128,-1,46
 557.392184697 144.236687856 557.392184697 144.236687856 500 144.236328125 c 0,47,48
 383.147780612 144.237060548 383.147780612 144.237060548 300.447913744 226.936729811 c 128,-1,49
 217.748046875 309.636399074 217.748046875 309.636399074 217.748046875 426.48828125 c 128,-1,50
 217.748046875 543.34196548 217.748046875 543.34196548 300.447960279 626.04207649 c 128,-1,51
 383.147873684 708.7421875 383.147873684 708.7421875 500 708.7421875 c 0,38,39
500 621.966796875 m 128,-1,53
 419.071533203 621.966796875 419.071533203 621.966796875 361.796508789 564.691772461 c 128,-1,54
 304.521484375 507.416748047 304.521484375 507.416748047 304.521484375 426.489257812 c 128,-1,55
 304.522216798 345.56071548 304.522216798 345.56071548 361.796912768 288.286217115 c 128,-1,56
 419.071608738 231.01171875 419.071608738 231.01171875 499.999023438 231.01171875 c 0,57,-1
 500.000976562 231.01171875 l 2,58,59
 580.928391262 231.01171875 580.928391262 231.01171875 638.203087232 288.286217115 c 128,-1,60
 695.477783202 345.56071548 695.477783202 345.56071548 695.478515625 426.48828125 c 128,-1,61
 695.478515625 507.416748047 695.478515625 507.416748047 638.203491211 564.691772461 c 128,-1,52
 580.928466797 621.966796875 580.928466797 621.966796875 500 621.966796875 c 128,-1,53
EndSplineSet
EndChar

StartChar: o
Encoding: 111 111 24
Width: 1000
VWidth: 0
LayerCount: 2
Fore
SplineSet
262.481445312 -121.0703125 m 1,0,-1
 332.6875 -121.0703125 l 1,1,-1
 332.6875 -141.278320312 l 1,2,-1
 236.10546875 -141.278320312 l 1,3,-1
 236.10546875 49.78515625 l 1,4,-1
 262.481445312 49.78515625 l 1,5,-1
 262.481445312 -121.0703125 l 1,0,-1
469.03125 -72.123046875 m 1,6,7
 469.03125 -106.766601562 469.03125 -106.766601562 452.49609375 -125.400390625 c 128,-1,8
 435.961914062 -144.034179688 435.961914062 -144.034179688 407.223632812 -144.034179688 c 0,9,10
 378.87890625 -144.034179688 378.87890625 -144.034179688 362.73828125 -125.400390625 c 128,-1,11
 346.728515625 -106.766601562 346.728515625 -106.766601562 346.728515625 -72.123046875 c 2,12,-1
 346.728515625 -19.6328125 l 2,13,14
 346.728515625 14.8798828125 346.728515625 14.8798828125 362.73828125 33.64453125 c 128,-1,15
 378.87890625 52.541015625 378.87890625 52.541015625 407.092773438 52.541015625 c 0,16,17
 435.831054688 52.541015625 435.831054688 52.541015625 452.365234375 33.64453125 c 128,-1,18
 469.03125 14.8798828125 469.03125 14.8798828125 469.03125 -19.6328125 c 2,19,-1
 469.03125 -72.123046875 l 1,6,7
442.654296875 -19.2392578125 m 1,20,21
 442.654296875 6.087890625 442.654296875 6.087890625 433.599609375 18.81640625 c 128,-1,22
 424.544921875 31.544921875 424.544921875 31.544921875 407.092773438 31.544921875 c 0,23,24
 390.295898438 31.544921875 390.295898438 31.544921875 381.634765625 18.81640625 c 128,-1,25
 373.104492188 6.087890625 373.104492188 6.087890625 373.104492188 -19.2392578125 c 2,26,-1
 373.104492188 -72.123046875 l 2,27,28
 373.104492188 -97.8427734375 373.104492188 -97.8427734375 381.634765625 -110.572265625 c 128,-1,29
 390.295898438 -123.30078125 390.295898438 -123.30078125 407.223632812 -123.30078125 c 0,30,31
 424.676757812 -123.30078125 424.676757812 -123.30078125 433.599609375 -110.572265625 c 128,-1,32
 442.654296875 -97.8427734375 442.654296875 -97.8427734375 442.654296875 -72.123046875 c 2,33,-1
 442.654296875 -19.2392578125 l 1,20,21
613.641601562 -84.1953125 m 0,34,35
 613.116210938 -113.58984375 613.116210938 -113.58984375 598.418945312 -128.8125 c 128,-1,36
 583.721679688 -144.034179688 583.721679688 -144.034179688 556.689453125 -144.034179688 c 0,37,38
 529.263671875 -144.034179688 529.263671875 -144.034179688 514.041015625 -125.663085938 c 128,-1,39
 498.819335938 -107.16015625 498.819335938 -107.16015625 498.819335938 -72.3857421875 c 2,40,-1
 498.819335938 -19.3701171875 l 2,41,42
 498.819335938 15.2734375 498.819335938 15.2734375 514.172851562 33.9072265625 c 128,-1,43
 529.525390625 52.541015625 529.525390625 52.541015625 556.689453125 52.541015625 c 0,44,45
 584.247070312 52.541015625 584.247070312 52.541015625 598.55078125 37.4501953125 c 128,-1,46
 612.854492188 22.490234375 612.854492188 22.490234375 613.772460938 -7.953125 c 1,47,-1
 587.396484375 -7.953125 l 1,48,49
 587.133789062 13.04296875 587.133789062 13.04296875 579.916015625 22.490234375 c 128,-1,50
 572.830078125 32.0703125 572.830078125 32.0703125 556.689453125 32.0703125 c 0,51,52
 541.073242188 32.0703125 541.073242188 32.0703125 533.069335938 19.2099609375 c 128,-1,53
 525.064453125 6.349609375 525.064453125 6.349609375 525.064453125 -18.9765625 c 2,54,-1
 525.064453125 -72.3857421875 l 2,55,56
 525.064453125 -98.10546875 525.064453125 -98.10546875 532.806640625 -110.965820312 c 128,-1,57
 540.6796875 -123.826171875 540.6796875 -123.826171875 556.689453125 -123.826171875 c 128,-1,58
 572.567382812 -123.826171875 572.567382812 -123.826171875 579.78515625 -114.771484375 c 128,-1,59
 587.002929688 -105.5859375 587.002929688 -105.5859375 587.396484375 -84.1953125 c 1,60,-1
 613.641601562 -84.1953125 l 0,34,35
683.453125 -55.5888671875 m 1,61,-1
 666.65625 -55.5888671875 l 1,62,-1
 666.65625 -141.278320312 l 1,63,-1
 640.280273438 -141.278320312 l 1,64,-1
 640.280273438 49.78515625 l 1,65,-1
 666.65625 49.78515625 l 1,66,-1
 666.65625 -34.1982421875 l 1,67,-1
 681.22265625 -34.1982421875 l 1,68,-1
 728.333007812 49.78515625 l 1,69,-1
 759.6953125 49.78515625 l 1,70,-1
 703.268554688 -41.1533203125 l 1,71,-1
 763.89453125 -141.278320312 l 1,72,-1
 731.744140625 -141.278320312 l 1,73,-1
 683.453125 -55.5888671875 l 1,61,-1
500 708.7421875 m 128,-1,75
 576.631099526 708.7421875 576.631099526 708.7421875 641.655007954 670.955644461 c 128,-1,76
 706.678916383 633.169101423 706.678916383 633.169101423 744.465434754 568.144941476 c 128,-1,77
 782.251953125 503.120781529 782.251953125 503.120781529 782.251953125 426.489257812 c 0,78,-1
 782.251953125 426.48828125 l 0,79,80
 782.251953125 309.636230469 782.251953125 309.636230469 699.552001953 226.936279297 c 128,-1,81
 616.852050781 144.236328125 616.852050781 144.236328125 500 144.236328125 c 128,-1,82
 383.147949219 144.236328125 383.147949219 144.236328125 300.447998047 226.936279297 c 128,-1,83
 217.748046875 309.636230469 217.748046875 309.636230469 217.748046875 426.48828125 c 0,84,-1
 217.748046875 426.489257812 l 0,85,86
 217.748046875 503.120781529 217.748046875 503.120781529 255.534565246 568.144941476 c 128,-1,87
 293.321083617 633.169101423 293.321083617 633.169101423 358.344992046 670.955644461 c 128,-1,74
 423.368900474 708.7421875 423.368900474 708.7421875 500 708.7421875 c 128,-1,75
500 621.966796875 m 0,88,-1
 499.999023438 621.966796875 l 0,89,90
 419.071533203 621.966796875 419.071533203 621.966796875 361.796508789 564.691772461 c 128,-1,91
 304.521484375 507.416748047 304.521484375 507.416748047 304.521484375 426.489257812 c 0,92,-1
 304.521484375 426.48828125 l 0,93,94
 304.522216798 345.56071548 304.522216798 345.56071548 361.796912768 288.286217115 c 128,-1,95
 419.071608738 231.01171875 419.071608738 231.01171875 499.999023438 231.01171875 c 0,96,-1
 500 231.01171875 l 0,97,-1
 500.000976562 231.01171875 l 0,98,99
 580.928391262 231.01171875 580.928391262 231.01171875 638.203087232 288.286217115 c 128,-1,100
 695.477783202 345.56071548 695.477783202 345.56071548 695.478515625 426.48828125 c 0,101,-1
 695.478515625 426.489257812 l 0,102,103
 695.478515625 507.416748047 695.478515625 507.416748047 638.203491211 564.691772461 c 128,-1,104
 580.928466797 621.966796875 580.928466797 621.966796875 500.000976562 621.966796875 c 0,105,-1
 500 621.966796875 l 0,88,-1
500 535.19140625 m 0,106,-1
 500.000976562 535.19140625 l 0,107,108
 545.00390625 535.19140625 545.00390625 535.19140625 576.853515625 503.341796875 c 128,-1,109
 608.703125 471.4921875 608.703125 471.4921875 608.703125 426.489257812 c 0,110,-1
 608.703125 426.48828125 l 0,111,112
 608.702392577 381.486008448 608.702392577 381.486008448 576.852745435 349.636558912 c 128,-1,113
 545.003098293 317.787109375 545.003098293 317.787109375 500.000976562 317.787109375 c 0,114,-1
 500 317.787109375 l 0,115,-1
 499.999023438 317.787109375 l 0,116,117
 454.996901707 317.787109375 454.996901707 317.787109375 423.147254565 349.636558912 c 128,-1,118
 391.297607423 381.486008448 391.297607423 381.486008448 391.296875 426.48828125 c 0,119,-1
 391.296875 426.489257812 l 0,120,121
 391.296875 471.492018895 391.296875 471.492018895 423.146766283 503.341712573 c 128,-1,122
 454.996657566 535.19140625 454.996657566 535.19140625 499.999023438 535.19140625 c 0,123,-1
 500 535.19140625 l 0,106,-1
EndSplineSet
EndChar

StartChar: p
Encoding: 112 112 25
Width: 1000
VWidth: 0
LayerCount: 2
Fore
SplineSet
249.83984375 426.489257812 m 128,-1,1
 249.83984375 528.15234375 249.83984375 528.15234375 321.727050781 600.039550781 c 128,-1,2
 393.614257812 671.926757812 393.614257812 671.926757812 495.27734375 671.926757812 c 128,-1,3
 596.940429688 671.926757812 596.940429688 671.926757812 668.827636719 600.039550781 c 128,-1,4
 740.71484375 528.15234375 740.71484375 528.15234375 740.71484375 426.489257812 c 128,-1,5
 740.71484375 324.826171875 740.71484375 324.826171875 668.827636719 252.938964844 c 128,-1,6
 596.940429688 181.051757812 596.940429688 181.051757812 495.27734375 181.051757812 c 128,-1,7
 393.614257812 181.051757812 393.614257812 181.051757812 321.727050781 252.938964844 c 128,-1,0
 249.83984375 324.826171875 249.83984375 324.826171875 249.83984375 426.489257812 c 128,-1,1
782.252929688 426.489257812 m 128,-1,9
 782.252929688 309.636474609 782.252929688 309.636474609 699.552856445 226.936401367 c 128,-1,10
 616.852783203 144.236328125 616.852783203 144.236328125 500 144.236328125 c 128,-1,11
 383.147216797 144.236328125 383.147216797 144.236328125 300.447143555 226.936401367 c 128,-1,12
 217.747070312 309.636474609 217.747070312 309.636474609 217.747070312 426.489257812 c 128,-1,13
 217.747070312 543.342041016 217.747070312 543.342041016 300.447143555 626.042114258 c 128,-1,14
 383.147216797 708.7421875 383.147216797 708.7421875 500 708.7421875 c 128,-1,15
 616.852783203 708.7421875 616.852783203 708.7421875 699.552856445 626.042114258 c 128,-1,8
 782.252929688 543.342041016 782.252929688 543.342041016 782.252929688 426.489257812 c 128,-1,9
317.13671875 -84.1953125 m 1,16,17
 316.612304688 -113.58984375 316.612304688 -113.58984375 301.915039062 -128.8125 c 128,-1,18
 287.217773438 -144.034179688 287.217773438 -144.034179688 260.185546875 -144.034179688 c 0,19,20
 232.758789062 -144.034179688 232.758789062 -144.034179688 217.537109375 -125.663085938 c 128,-1,21
 202.314453125 -107.16015625 202.314453125 -107.16015625 202.314453125 -72.3857421875 c 2,22,-1
 202.314453125 -19.3701171875 l 2,23,24
 202.314453125 15.2734375 202.314453125 15.2734375 217.66796875 33.9072265625 c 128,-1,25
 233.021484375 52.541015625 233.021484375 52.541015625 260.185546875 52.541015625 c 0,26,27
 287.743164062 52.541015625 287.743164062 52.541015625 302.045898438 37.4501953125 c 128,-1,28
 316.349609375 22.490234375 316.349609375 22.490234375 317.268554688 -7.953125 c 1,29,-1
 290.892578125 -7.953125 l 1,30,31
 290.629882812 13.04296875 290.629882812 13.04296875 283.412109375 22.490234375 c 128,-1,32
 276.326171875 32.0703125 276.326171875 32.0703125 260.185546875 32.0703125 c 0,33,34
 244.569335938 32.0703125 244.569335938 32.0703125 236.564453125 19.2099609375 c 128,-1,35
 228.559570312 6.349609375 228.559570312 6.349609375 228.559570312 -18.9765625 c 2,36,-1
 228.559570312 -72.3857421875 l 2,37,38
 228.559570312 -98.10546875 228.559570312 -98.10546875 236.301757812 -110.965820312 c 128,-1,39
 244.17578125 -123.826171875 244.17578125 -123.826171875 260.185546875 -123.826171875 c 128,-1,40
 276.063476562 -123.826171875 276.063476562 -123.826171875 283.28125 -114.771484375 c 128,-1,41
 290.498046875 -105.5859375 290.498046875 -105.5859375 290.892578125 -84.1953125 c 1,42,-1
 317.13671875 -84.1953125 l 1,16,17
463.322265625 -72.123046875 m 2,43,44
 463.322265625 -106.766601562 463.322265625 -106.766601562 446.788085938 -125.400390625 c 128,-1,45
 430.25390625 -144.034179688 430.25390625 -144.034179688 401.515625 -144.034179688 c 0,46,47
 373.170898438 -144.034179688 373.170898438 -144.034179688 357.030273438 -125.400390625 c 128,-1,48
 341.020507812 -106.766601562 341.020507812 -106.766601562 341.020507812 -72.123046875 c 2,49,-1
 341.020507812 -19.6328125 l 2,50,51
 341.020507812 14.8798828125 341.020507812 14.8798828125 357.030273438 33.64453125 c 128,-1,52
 373.170898438 52.541015625 373.170898438 52.541015625 401.383789062 52.541015625 c 0,53,54
 430.122070312 52.541015625 430.122070312 52.541015625 446.657226562 33.64453125 c 128,-1,55
 463.322265625 14.8798828125 463.322265625 14.8798828125 463.322265625 -19.6328125 c 2,56,-1
 463.322265625 -72.123046875 l 2,43,44
436.946289062 -19.2392578125 m 2,57,58
 436.946289062 6.087890625 436.946289062 6.087890625 427.891601562 18.81640625 c 128,-1,59
 418.836914062 31.544921875 418.836914062 31.544921875 401.383789062 31.544921875 c 0,60,61
 384.586914062 31.544921875 384.586914062 31.544921875 375.926757812 18.81640625 c 128,-1,62
 367.396484375 6.087890625 367.396484375 6.087890625 367.396484375 -19.2392578125 c 2,63,-1
 367.396484375 -72.123046875 l 2,64,65
 367.396484375 -97.8427734375 367.396484375 -97.8427734375 375.926757812 -110.572265625 c 128,-1,66
 384.586914062 -123.30078125 384.586914062 -123.30078125 401.515625 -123.30078125 c 0,67,68
 418.96875 -123.30078125 418.96875 -123.30078125 427.891601562 -110.572265625 c 128,-1,69
 436.946289062 -97.8427734375 436.946289062 -97.8427734375 436.946289062 -72.123046875 c 2,70,-1
 436.946289062 -19.2392578125 l 2,57,58
529.72265625 49.78515625 m 1,71,-1
 571.452148438 -106.635742188 l 1,72,-1
 571.845703125 -106.635742188 l 1,73,-1
 613.576171875 49.78515625 l 1,74,-1
 647.563476562 49.78515625 l 1,75,-1
 647.563476562 -141.278320312 l 1,76,-1
 621.44921875 -141.278320312 l 1,77,-1
 621.44921875 -67.923828125 l 1,78,-1
 623.942382812 4.90625 l 1,79,-1
 580.375976562 -141.278320312 l 1,80,-1
 562.922851562 -141.278320312 l 1,81,-1
 519.880859375 5.0380859375 l 1,82,-1
 519.487304688 4.90625 l 1,83,-1
 521.98046875 -67.923828125 l 1,84,-1
 521.98046875 -141.278320312 l 1,85,-1
 495.866210938 -141.278320312 l 1,86,-1
 495.866210938 49.78515625 l 1,87,-1
 529.72265625 49.78515625 l 1,71,-1
709.239257812 -65.955078125 m 1,88,-1
 709.239257812 -141.278320312 l 1,89,-1
 682.86328125 -141.278320312 l 1,90,-1
 682.86328125 49.78515625 l 1,91,-1
 743.095703125 49.78515625 l 2,92,93
 769.078125 49.78515625 769.078125 49.78515625 783.381835938 34.0390625 c 128,-1,94
 797.685546875 18.4228515625 797.685546875 18.4228515625 797.685546875 -8.0849609375 c 128,-1,95
 797.685546875 -34.7236328125 797.685546875 -34.7236328125 783.381835938 -50.33984375 c 128,-1,96
 769.208984375 -65.955078125 769.208984375 -65.955078125 743.095703125 -65.955078125 c 2,97,-1
 709.239257812 -65.955078125 l 1,88,-1
709.239257812 -45.484375 m 1,98,-1
 743.095703125 -45.484375 l 2,99,100
 757.399414062 -45.484375 757.399414062 -45.484375 764.353515625 -35.1171875 c 128,-1,101
 771.30859375 -24.7509765625 771.30859375 -24.7509765625 771.30859375 -8.34765625 c 128,-1,102
 771.30859375 8.1875 771.30859375 8.1875 764.353515625 18.685546875 c 128,-1,103
 757.399414062 29.314453125 757.399414062 29.314453125 743.095703125 29.314453125 c 2,104,-1
 709.239257812 29.314453125 l 1,105,-1
 709.239257812 -45.484375 l 1,98,-1
EndSplineSet
EndChar
